<svg xmlns="http://www.w3.org/2000/svg" width="43.225" height="49.048" viewBox="0 0 43.225 49.048"><defs><style>.a{fill:#96bfe8;}.b{fill:#0f0e4f;opacity:0.1;}.c{fill:#dc4955;}.d{fill:#c42430;}.e{fill:#f9f8f9;}</style></defs><path class="a" d="M91.679,44.669a4.384,4.384,0,0,1-4.388,4.379H57.123a4.384,4.384,0,0,1-4.388-4.379V4.379A4.384,4.384,0,0,1,57.123,0H75.9a3.294,3.294,0,0,1,2.33.964L90.718,13.451a3.281,3.281,0,0,1,.961,2.32Z" transform="translate(-50.595 0)"/><path class="b" d="M60.083,49.048H57.123a4.384,4.384,0,0,1-4.388-4.38V4.38A4.384,4.384,0,0,1,57.123,0h2.961A4.384,4.384,0,0,0,55.7,4.38V44.668A4.384,4.384,0,0,0,60.083,49.048Z" transform="translate(-50.595 0)"/><path class="b" d="M295.3,15.77v1.6H283.859a5.934,5.934,0,0,1-5.927-5.928V0h1.6a3.3,3.3,0,0,1,2.329.964L294.342,13.45A3.281,3.281,0,0,1,295.3,15.77Z" transform="translate(-254.218 0)"/><path class="c" d="M322.953,17.216H311.8a2.967,2.967,0,0,1-2.967-2.968V3.1a3.26,3.26,0,0,1,.964.667l12.485,12.486A3.26,3.26,0,0,1,322.953,17.216Z" transform="translate(-282.164 -2.804)"/><path class="c" d="M69.669,233.49H34.339a3.948,3.948,0,0,1-3.947-3.948V215.134a3.948,3.948,0,0,1,3.947-3.947h35.33a3.948,3.948,0,0,1,3.947,3.947v14.408A3.948,3.948,0,0,1,69.669,233.49Z" transform="translate(-30.391 -190.956)"/><path class="d" d="M36.806,233.49H34.338a3.948,3.948,0,0,1-3.947-3.948V215.134a3.948,3.948,0,0,1,3.947-3.947h2.467a3.948,3.948,0,0,0-3.947,3.947v14.408A3.948,3.948,0,0,0,36.806,233.49Z" transform="translate(-30.391 -190.956)"/><g transform="translate(18.044 25.059)"><path class="e" d="M338.365,263.065a.74.74,0,0,0,0-1.48h-4.526a.74.74,0,0,0-.74.74v11.167a.74.74,0,0,0,1.48,0v-4.949h3.426a.74.74,0,1,0,0-1.48h-3.426v-4Z" transform="translate(-322.144 -261.585)"/><path class="e" d="M222.577,262.891h-3.092a.74.74,0,0,0-.74.741v.01h0v10.728a.735.735,0,0,0,.022.177v0a.74.74,0,0,0,.74.738h0c.093,0,2.294-.009,3.17-.024a4.722,4.722,0,0,0,3.727-1.9,7.046,7.046,0,0,0,1.318-4.278C227.726,265.382,225.657,262.891,222.577,262.891Zm.078,10.893c-.551.01-1.665.017-2.41.02,0-1.221-.012-3.628-.012-4.727,0-.918,0-3.442-.007-4.706h2.35c2.7,0,3.668,2.437,3.668,4.718C226.245,271.817,224.769,273.747,222.655,273.784Z" transform="translate(-218.745 -262.766)"/></g></svg>