<svg width="44" height="43" viewBox="0 0 44 43" fill="none" xmlns="http://www.w3.org/2000/svg">
<path opacity="0.4" d="M24.167 6.20239H13.417C7.28953 6.20239 4.90662 8.52989 4.90662 14.5149V28.5149C4.90662 32.5399 7.1462 36.8274 13.417 36.8274H24.167C30.2945 36.8274 32.6775 34.4999 32.6775 28.5149V14.5149C32.6775 8.52989 30.2945 6.20239 24.167 6.20239Z" fill="white"/>
<path d="M21.4795 20.4299C23.3398 20.4299 24.8479 18.9569 24.8479 17.1399C24.8479 15.3228 23.3398 13.8499 21.4795 13.8499C19.6193 13.8499 18.1112 15.3228 18.1112 17.1399C18.1112 18.9569 19.6193 20.4299 21.4795 20.4299Z" fill="white"/>
<path d="M39.6649 11.3125C38.9304 10.945 37.3895 10.525 35.2933 11.96L32.6416 13.78C32.6595 14.025 32.6774 14.2525 32.6774 14.515V28.515C32.6774 28.7775 32.6416 29.005 32.6416 29.25L35.2933 31.07C36.4041 31.84 37.3716 32.085 38.142 32.085C38.8049 32.085 39.3245 31.91 39.6649 31.735C40.3995 31.3675 41.6358 30.37 41.6358 27.8675V15.18C41.6358 12.6775 40.3995 11.68 39.6649 11.3125Z" fill="white"/>
</svg>
