<svg width="42" height="42" viewBox="0 0 42 42" fill="none" xmlns="http://www.w3.org/2000/svg">
    <path opacity="0.4"
          d="M33.7752 13.86V22.8725C33.7752 28.2625 30.6952 30.5724 26.0752 30.5724H10.6927C9.90517 30.5724 9.15267 30.5025 8.45267 30.345C8.01517 30.275 7.59518 30.1525 7.21018 30.0125C4.58518 29.0325 2.99268 26.7575 2.99268 22.8725V13.86C2.99268 8.46997 6.07266 6.16003 10.6927 6.16003H26.0752C29.9952 6.16003 32.8127 7.82253 33.5652 11.62C33.6877 12.32 33.7752 13.0375 33.7752 13.86Z"
          fill="currentColor"/>
    <path d="M39.0251 19.1099V28.1225C39.0251 33.5125 35.9452 35.8224 31.3251 35.8224H15.9426C14.6476 35.8224 13.4752 35.6475 12.4602 35.2625C10.3777 34.4925 8.96014 32.9 8.45264 30.345C9.15264 30.5025 9.90513 30.5724 10.6926 30.5724H26.0751C30.6952 30.5724 33.7751 28.2625 33.7751 22.8725V13.8599C33.7751 13.0374 33.7051 12.3025 33.5651 11.62C36.8901 12.32 39.0251 14.6649 39.0251 19.1099Z"
          fill="currentColor"/>
    <path d="M18.3749 22.9951C20.9265 22.9951 22.9949 20.9266 22.9949 18.375C22.9949 15.8235 20.9265 13.755 18.3749 13.755C15.8234 13.755 13.7549 15.8235 13.7549 18.375C13.7549 20.9266 15.8234 22.9951 18.3749 22.9951Z"
          fill="currentColor"/>
    <path d="M8.36523 14.4375C7.64773 14.4375 7.05273 15.0325 7.05273 15.75V21C7.05273 21.7175 7.64773 22.3125 8.36523 22.3125C9.08273 22.3125 9.67773 21.7175 9.67773 21V15.75C9.67773 15.0325 9.10023 14.4375 8.36523 14.4375Z"
          fill="currentColor"/>
    <path d="M28.3677 14.4375C27.6502 14.4375 27.0552 15.0325 27.0552 15.75V21C27.0552 21.7175 27.6502 22.3125 28.3677 22.3125C29.0852 22.3125 29.6802 21.7175 29.6802 21V15.75C29.6802 15.0325 29.1027 14.4375 28.3677 14.4375Z"
          fill="currentColor"/>
</svg>
