<svg width="42" height="42" viewBox="0 0 42 42" fill="none" xmlns="http://www.w3.org/2000/svg">
    <path opacity="0.4"
          d="M35.875 12.25V26.25H11.1125C8.365 26.25 6.125 28.49 6.125 31.2375V12.25C6.125 5.25 7.875 3.5 14.875 3.5H27.125C34.125 3.5 35.875 5.25 35.875 12.25Z"
          fill="currentColor"/>
    <path d="M35.875 26.25V32.375C35.875 35.7525 33.1275 38.5 29.75 38.5H12.25C8.8725 38.5 6.125 35.7525 6.125 32.375V31.2375C6.125 28.49 8.365 26.25 11.1125 26.25H35.875Z"
          fill="currentColor"/>
    <path d="M28 13.5625H14C13.2825 13.5625 12.6875 12.9675 12.6875 12.25C12.6875 11.5325 13.2825 10.9375 14 10.9375H28C28.7175 10.9375 29.3125 11.5325 29.3125 12.25C29.3125 12.9675 28.7175 13.5625 28 13.5625Z"
          fill="currentColor"/>
    <path d="M22.75 19.6875H14C13.2825 19.6875 12.6875 19.0925 12.6875 18.375C12.6875 17.6575 13.2825 17.0625 14 17.0625H22.75C23.4675 17.0625 24.0625 17.6575 24.0625 18.375C24.0625 19.0925 23.4675 19.6875 22.75 19.6875Z"
          fill="currentColor"/>
</svg>
