<svg width="43" height="44" viewBox="0 0 43 44" fill="none" xmlns="http://www.w3.org/2000/svg">
<path opacity="0.4" d="M39.3754 35.9736V21.8373C39.3754 11.804 31.5004 3.59814 21.8754 3.59814C12.2504 3.59814 4.37537 11.804 4.37537 21.8373V35.9736C4.37537 38.2311 5.68784 38.8402 7.29784 37.3352L9.04784 35.7048C9.69534 35.0956 10.7454 35.0956 11.3929 35.7048L14.8929 38.9836C15.5404 39.5927 16.5903 39.5927 17.2378 38.9836L20.7378 35.7048C21.3853 35.0956 22.4354 35.0956 23.0829 35.7048L26.5829 38.9836C27.2304 39.5927 28.2804 39.5927 28.9279 38.9836L32.4279 35.7048C33.0754 35.0956 34.1254 35.0956 34.7729 35.7048L36.5229 37.3352C38.0629 38.8402 39.3754 38.2311 39.3754 35.9736Z" fill="white"/>
<path d="M21.8755 28.8069C19.128 28.8069 16.3804 27.929 14.0879 26.1732C13.5104 25.7252 13.388 24.8832 13.8255 24.2919C14.263 23.7007 15.0855 23.5752 15.663 24.0231C19.3205 26.8361 24.4304 26.8361 28.0879 24.0231C28.6654 23.5752 29.4879 23.7007 29.9254 24.2919C30.3629 24.8832 30.2405 25.7252 29.663 26.1732C27.3705 27.929 24.623 28.8069 21.8755 28.8069Z" fill="white"/>
<path d="M21.8753 20.4041C24.1756 20.4041 26.0403 18.4949 26.0403 16.1399C26.0403 13.7849 24.1756 11.8757 21.8753 11.8757C19.5751 11.8757 17.7103 13.7849 17.7103 16.1399C17.7103 18.4949 19.5751 20.4041 21.8753 20.4041Z" fill="white"/>
</svg>
