<svg xmlns="http://www.w3.org/2000/svg" width="207.991" height="268.977" viewBox="0 0 207.991 268.977">
  <g id="footer-logo" transform="translate(-856.005 -6289.023)">
    <g id="Group_994" data-name="Group 994" transform="translate(864.503 6289.023)">
      <path id="Path_3650" data-name="Path 3650" d="M303.916,167.808a9.483,9.483,0,0,0-.2-1.077c-.01-.039-.026-.078-.036-.117a9.6,9.6,0,0,0-.294-.937c-.04-.108-.091-.215-.135-.322-.1-.242-.2-.482-.325-.721-.062-.123-.131-.246-.2-.369-.123-.222-.254-.444-.4-.665q-.121-.189-.253-.376c-.154-.219-.32-.437-.492-.655-.1-.119-.19-.24-.291-.359-.2-.23-.408-.457-.626-.684-.1-.1-.191-.206-.294-.307-.292-.288-.605-.573-.935-.856-.044-.038-.082-.076-.127-.114-.386-.326-.8-.648-1.238-.967-.087-.063-.185-.126-.274-.188-.352-.25-.715-.5-1.1-.742-.156-.1-.322-.2-.483-.294-.34-.208-.688-.414-1.052-.618-.19-.107-.388-.212-.585-.318q-.545-.292-1.123-.579c-.211-.1-.425-.209-.644-.312-.407-.194-.83-.385-1.262-.574-.218-.1-.432-.192-.656-.287-.491-.208-1-.412-1.526-.615-.184-.072-.359-.145-.547-.216-.728-.275-1.479-.546-2.265-.812C252.7,142.279,248.983,130.2,236.74,113.36l-.027-.036h0s-.46-.646-1.783-2.243c-.424-.516-.9-1.083-1.408-1.688l-.013-.015-.145-.172c-.884-1.049-1.977-2.317-3.336-3.8-.227-.248-.451-.494-.692-.754l-.008-.007c-.3-.321-.614-.656-.937-.994l-.176-.186-.035-.035c-.531-.548-1.047-1.065-1.532-1.525-.111-.106-.228-.2-.341-.3-.054-.05-.1-.1-.157-.153l-.029-.028c-.448-.416-.919-.814-1.386-1.215-.386-.332-.764-.669-1.162-.991-.377-.306-.771-.6-1.159-.894-.518-.4-1.034-.8-1.571-1.175-.3-.214-.614-.418-.921-.626-.651-.443-1.3-.883-1.979-1.3-.222-.139-.452-.27-.677-.407-.782-.473-1.573-.938-2.385-1.38-.139-.075-.281-.147-.42-.222-.917-.49-1.846-.968-2.8-1.421l-.146-.068C183.77,78.541,142.144,81.706,118.5,105.365c-4.321,4.324-5.346,8.135-4.055,11.74l.012.033c.043.12.083.242.131.362-.017-.048-.026-.1-.041-.143.025.065.054.13.081.2a11.245,11.245,0,0,0,2,3.311c.051.062.1.126.152.189.1.127.22.253.331.38a27.883,27.883,0,0,0,2.871,2.826,47.241,47.241,0,0,0,5.643,4.222c1.732,1.159,3.615,2.333,5.6,3.527,18.894,12.6,39.338,33.922,37.471,50.062-3.018,26.081,18.76,47.147,33.959,50.851a21.2,21.2,0,0,0,2.388.422c.149.019.3.033.448.049.414.046.828.079,1.245.1s.823.033,1.236.028l.343,0c10.925-.221,22.451-8.484,30.4-23.246l-.134.032.017-.032a176.894,176.894,0,0,0,26.635-9.069l.037-.016q.926-.4,1.843-.806l.062-.028c3.1-1.378,6.128-2.831,9.034-4.346l.055-.028q.76-.4,1.508-.8l.346-.186c.461-.249.917-.5,1.37-.751.147-.082.293-.163.439-.245q.656-.366,1.3-.738l.44-.255c.432-.251.86-.5,1.283-.755l.346-.209q2.11-1.273,4.071-2.581c.113-.075.229-.15.34-.225.337-.227.665-.455.994-.683.191-.132.384-.265.573-.4.3-.212.6-.425.89-.639.207-.151.413-.3.617-.452q.416-.308.823-.618c.211-.162.42-.323.627-.485.257-.2.512-.4.762-.6.211-.17.417-.34.624-.511.237-.2.477-.391.707-.588s.426-.371.637-.557.422-.365.624-.548q.582-.526,1.129-1.056c.168-.162.325-.324.489-.487.213-.212.427-.424.632-.637.163-.17.319-.34.477-.511.191-.206.381-.411.563-.618.152-.171.3-.342.443-.511q.265-.311.516-.623c.135-.168.268-.336.4-.5.165-.215.324-.43.479-.644.116-.16.232-.32.343-.479.162-.233.311-.467.46-.7.09-.14.184-.281.269-.421.2-.326.381-.652.554-.977.024-.047.054-.093.078-.14.192-.37.365-.739.523-1.107.051-.12.094-.241.142-.361.1-.252.2-.5.282-.754.048-.14.086-.279.129-.419.07-.231.134-.463.189-.693.035-.144.065-.288.094-.432q.067-.342.114-.682c.019-.141.038-.282.051-.422.023-.236.033-.47.039-.7,0-.129.01-.257.008-.386,0-.269-.023-.537-.049-.8C303.929,167.99,303.927,167.9,303.916,167.808Z" transform="translate(-113.927 -84.002)" fill="#fff"/>
      <path id="Path_3677" data-name="Path 3677" d="M252.434,158.186c.354.453.7.915,1.029,1.384C253.129,159.1,252.788,158.639,252.434,158.186Z" transform="translate(-125.239 -90.061)" fill="#fd1258"/>
      <path id="Path_3680" data-name="Path 3680" d="M249.84,155.178q.452.479.888.973Q250.291,155.657,249.84,155.178Z" transform="translate(-125.027 -89.816)" fill="#fd1258"/>
      <path id="Path_3681" data-name="Path 3681" d="M251.172,156.654c.387.448.765.9,1.13,1.369C251.937,157.558,251.559,157.1,251.172,156.654Z" transform="translate(-125.136 -89.936)" fill="#fd1258"/>
      <path id="Path_3685" data-name="Path 3685" d="M257.89,167.48c.223.543.437,1.089.632,1.641C258.327,168.569,258.113,168.023,257.89,167.48Z" transform="translate(-125.685 -90.82)" fill="#fd1258"/>
      <path id="Path_3687" data-name="Path 3687" d="M258.581,169.279c.192.545.364,1.1.524,1.649C258.945,170.375,258.773,169.824,258.581,169.279Z" transform="translate(-125.741 -90.967)" fill="#fd1258"/>
      <path id="Path_3688" data-name="Path 3688" d="M257.082,165.671q.285.6.545,1.2Q257.366,166.268,257.082,165.671Z" transform="translate(-125.619 -90.673)" fill="#fd1258"/>
      <path id="Path_3691" data-name="Path 3691" d="M254.971,161.816c.313.5.617,1.009.9,1.524C255.588,162.825,255.284,162.318,254.971,161.816Z" transform="translate(-125.446 -90.358)" fill="#fd1258"/>
      <path id="Path_3692" data-name="Path 3692" d="M253.874,160.152q.378.545.737,1.1Q254.252,160.7,253.874,160.152Z" transform="translate(-125.357 -90.222)" fill="#fd1258"/>
      <path id="Path_3694" data-name="Path 3694" d="M255.97,163.5c.282.506.547,1.02.8,1.538C256.517,164.521,256.252,164.007,255.97,163.5Z" transform="translate(-125.528 -90.495)" fill="#fd1258"/>
      <path id="Path_3696" data-name="Path 3696" d="M243.271,149.481c.44.309.873.629,1.3.957C244.144,150.11,243.711,149.79,243.271,149.481Z" transform="translate(-124.49 -89.35)" fill="#fd1258"/>
      <path id="Path_3697" data-name="Path 3697" d="M234.427,144.85q.563.2,1.123.428Q234.991,145.052,234.427,144.85Z" transform="translate(-123.768 -88.972)" fill="#fd1258"/>
      <path id="Path_3698" data-name="Path 3698" d="M289.84,205.969c-2.907,1.514-5.936,2.968-9.035,4.346C283.9,208.937,286.933,207.483,289.84,205.969Z" transform="translate(-127.556 -93.964)" fill="#fd1258"/>
      <path id="Path_3699" data-name="Path 3699" d="M236.158,145.522c.507.214,1.013.439,1.513.681C237.171,145.961,236.666,145.736,236.158,145.522Z" transform="translate(-123.91 -89.027)" fill="#fd1258"/>
      <path id="Path_3700" data-name="Path 3700" d="M237.961,146.341c.458.224.914.461,1.367.707C238.875,146.8,238.419,146.565,237.961,146.341Z" transform="translate(-124.057 -89.094)" fill="#fd1258"/>
      <path id="Path_3701" data-name="Path 3701" d="M248.151,153.476c.405.384.8.78,1.19,1.182Q248.757,154.055,248.151,153.476Z" transform="translate(-124.889 -89.677)" fill="#fd1258"/>
      <path id="Path_3702" data-name="Path 3702" d="M292.211,205.067q-.748.4-1.508.8Q291.463,205.47,292.211,205.067Z" transform="translate(-128.365 -93.89)" fill="#fd1258"/>
      <path id="Path_3703" data-name="Path 3703" d="M246.358,117.454l-.15.085C246.258,117.511,246.31,117.482,246.358,117.454Z" transform="translate(-124.731 -86.735)" fill="#fd1258"/>
      <path id="Path_3704" data-name="Path 3704" d="M247.141,116.9l0,0Z" transform="translate(-124.806 -86.689)" fill="#fd1258"/>
      <path id="Path_3705" data-name="Path 3705" d="M280.574,210.731q-.917.408-1.843.806Q279.657,211.138,280.574,210.731Z" transform="translate(-127.387 -94.353)" fill="#fd1258"/>
      <path id="Path_3706" data-name="Path 3706" d="M247.413,116.581c-.009.014-.02.027-.029.04C247.393,116.608,247.4,116.595,247.413,116.581Z" transform="translate(-124.826 -86.663)" fill="#fd1258"/>
      <path id="Path_3707" data-name="Path 3707" d="M232.362,144.179q.705.2,1.406.442Q233.067,144.382,232.362,144.179Z" transform="translate(-123.6 -88.917)" fill="#fd1258"/>
      <path id="Path_3708" data-name="Path 3708" d="M247.579,116.247c0,.015-.008.029-.014.044C247.57,116.276,247.574,116.262,247.579,116.247Z" transform="translate(-124.841 -86.636)" fill="#fd1258"/>
      <path id="Path_3710" data-name="Path 3710" d="M295.993,202.976q-.645.372-1.3.738Q295.348,203.348,295.993,202.976Z" transform="translate(-128.69 -93.719)" fill="#fd1258"/>
      <path id="Path_3711" data-name="Path 3711" d="M245.146,150.881q.5.4,1,.814Q245.651,151.279,245.146,150.881Z" transform="translate(-124.644 -89.465)" fill="#fd1258"/>
      <path id="Path_3712" data-name="Path 3712" d="M246.662,152.129c.442.382.878.771,1.3,1.174C247.54,152.9,247.1,152.511,246.662,152.129Z" transform="translate(-124.768 -89.567)" fill="#fd1258"/>
      <path id="Path_3713" data-name="Path 3713" d="M239.953,147.393q.541.306,1.074.632Q240.494,147.7,239.953,147.393Z" transform="translate(-124.219 -89.18)" fill="#fd1258"/>
      <path id="Path_3716" data-name="Path 3716" d="M259.3,171.606q.171.627.315,1.259Q259.468,172.233,259.3,171.606Z" transform="translate(-125.8 -91.157)" fill="#fd1258"/>
      <path id="Path_3717" data-name="Path 3717" d="M241.6,148.374c.482.3.96.616,1.431.944C242.563,148.99,242.085,148.678,241.6,148.374Z" transform="translate(-124.354 -89.26)" fill="#fd1258"/>
      <path id="Path_3718" data-name="Path 3718" d="M294.092,204.047c-.454.252-.909.5-1.37.751C293.183,204.549,293.638,204.3,294.092,204.047Z" transform="translate(-128.529 -93.807)" fill="#fd1258"/>
      <path id="Path_3725" data-name="Path 3725" d="M245.567,113.339c-.424-.516-.9-1.083-1.408-1.688.419.5.79.946,1.12,1.342Z" transform="translate(-124.563 -86.261)" fill="#fd1258"/>
      <path id="Path_3730" data-name="Path 3730" d="M232.088,141.957l.039.01-.018-.006c-3.553-19.212,8.32-21.961,12.666-24.279C240.419,119.994,228.524,122.731,232.088,141.957Z" transform="translate(-123.524 -86.753)" fill="#fd1258"/>
      <path id="Path_3731" data-name="Path 3731" d="M236.643,103.468c-.111-.106-.228-.2-.341-.3.639.6,1.272,1.2,1.872,1.827C237.644,104.445,237.128,103.928,236.643,103.468Z" transform="translate(-123.922 -85.568)" fill="#fd1258"/>
      <path id="Path_3732" data-name="Path 3732" d="M249.687,220.7a176.9,176.9,0,0,0,26.635-9.069,176.954,176.954,0,0,1-26.634,9.068Z" transform="translate(-125.014 -94.426)" fill="#fd1258"/>
      <path id="Path_3733" data-name="Path 3733" d="M246.808,117.162l-.077.056Z" transform="translate(-124.773 -86.711)" fill="#fd1258"/>
      <path id="Path_3734" data-name="Path 3734" d="M238.571,105.4c.322.338.639.673.937.994Q239.035,105.88,238.571,105.4Z" transform="translate(-124.106 -85.75)" fill="#fd1258"/>
      <path id="Path_3738" data-name="Path 3738" d="M243.987,111.448l.145.172Z" transform="translate(-124.549 -86.244)" fill="#fd1258"/>
      <path id="Path_3739" data-name="Path 3739" d="M239.6,106.487c.242.26.466.506.692.754Q239.945,106.859,239.6,106.487Z" transform="translate(-124.191 -85.839)" fill="#fd1258"/>
      <path id="Path_3740" data-name="Path 3740" d="M259.762,173.515c.118.568.226,1.139.31,1.713C259.988,174.654,259.88,174.083,259.762,173.515Z" transform="translate(-125.837 -91.313)" fill="#fd1258"/>
      <path id="Path_3742" data-name="Path 3742" d="M260.413,179.782c0,.576-.014,1.153-.052,1.731C260.4,180.935,260.413,180.358,260.413,179.782Z" transform="translate(-125.886 -91.825)" fill="#fd1258"/>
      <path id="Path_3743" data-name="Path 3743" d="M260.332,181.732c-.076,1.126-.174,2.233-.28,3.331C260.158,183.965,260.256,182.858,260.332,181.732Z" transform="translate(-125.861 -91.984)" fill="#fd1258"/>
      <path id="Path_3744" data-name="Path 3744" d="M260.351,177.816q.041.641.054,1.284Q260.393,178.457,260.351,177.816Z" transform="translate(-125.885 -91.664)" fill="#fd1258"/>
      <path id="Path_3749" data-name="Path 3749" d="M260.1,175.4c.083.566.143,1.135.192,1.706C260.246,176.533,260.186,175.964,260.1,175.4Z" transform="translate(-125.865 -91.467)" fill="#fd1258"/>
      <path id="Path_3750" data-name="Path 3750" d="M259.914,186.439q-.135,1.266-.3,2.507Q259.778,187.7,259.914,186.439Z" transform="translate(-125.826 -92.369)" fill="#fd1258"/>
      <path id="Path_3751" data-name="Path 3751" d="M257.042,202.327c-.132.506-.264,1.012-.4,1.51C256.779,203.339,256.91,202.833,257.042,202.327Z" transform="translate(-125.583 -93.666)" fill="#fd1258"/>
      <path id="Path_3752" data-name="Path 3752" d="M258.047,198.092c-.141.659-.292,1.309-.445,1.956C257.755,199.4,257.905,198.751,258.047,198.092Z" transform="translate(-125.661 -93.32)" fill="#fd1258"/>
      <path id="Path_3754" data-name="Path 3754" d="M256.123,205.654c-.106.353-.214.7-.322,1.05C255.91,206.356,256.018,206.007,256.123,205.654Z" transform="translate(-125.514 -93.938)" fill="#fd1258"/>
      <path id="Path_3755" data-name="Path 3755" d="M253.668,212.835c-.057.143-.113.287-.17.43C253.555,213.122,253.611,212.978,253.668,212.835Z" transform="translate(-125.326 -94.525)" fill="#fd1258"/>
      <path id="Path_3757" data-name="Path 3757" d="M259.453,190.11q-.214,1.541-.468,3.042Q259.24,191.651,259.453,190.11Z" transform="translate(-125.774 -92.669)" fill="#fd1258"/>
      <path id="Path_3759" data-name="Path 3759" d="M258.751,194.538q-.184,1.023-.387,2.029Q258.567,195.562,258.751,194.538Z" transform="translate(-125.723 -93.03)" fill="#fd1258"/>
      <path id="Path_3760" data-name="Path 3760" d="M126.164,132.061a58.436,58.436,0,0,1-5.643-4.222A47.23,47.23,0,0,0,126.164,132.061Z" transform="translate(-114.465 -87.583)" fill="blue" style="mix-blend-mode: lighten;isolation: isolate"/>
      <path id="Path_3762" data-name="Path 3762" d="M214.883,246.778c-.417-.021-.831-.054-1.245-.1C214.052,246.722,214.466,246.759,214.883,246.778Z" transform="translate(-122.071 -97.289)" fill="blue" style="mix-blend-mode: lighten;isolation: isolate"/>
      <path id="Path_3764" data-name="Path 3764" d="M228.727,224.413c.995,0,2.059-.043,3.219-.129a98.661,98.661,0,0,0,16.012-2.75l.017-.032a98.988,98.988,0,0,1-16.146,2.783C230.714,224.367,229.689,224.407,228.727,224.413Z" transform="translate(-123.303 -95.232)" fill="blue" style="mix-blend-mode: lighten;isolation: isolate"/>
      <path id="Path_3765" data-name="Path 3765" d="M170.355,186.339c1.839-15.894-17.959-36.808-36.605-49.473-.332-.2-.658-.393-.983-.589,18.894,12.6,39.338,33.922,37.471,50.062-3.018,26.08,18.76,47.147,33.959,50.851a21.2,21.2,0,0,0,2.388.422,21.147,21.147,0,0,1-2.271-.422C189.115,233.486,167.337,212.419,170.355,186.339Z" transform="translate(-115.465 -88.272)" fill="blue" style="mix-blend-mode: lighten;isolation: isolate"/>
      <path id="Path_3766" data-name="Path 3766" d="M216.683,246.815l-.343,0C216.455,246.817,216.569,246.818,216.683,246.815Z" transform="translate(-122.291 -97.3)" fill="blue" style="mix-blend-mode: lighten;isolation: isolate"/>
      <path id="Path_3767" data-name="Path 3767" d="M246.746,215.18a73.03,73.03,0,0,0,3.5-7.528c.057-.142.113-.287.17-.43q1.047-2.668,1.945-5.545c.108-.348.217-.7.322-1.05.152-.512.3-1.025.447-1.546.139-.5.271-1,.4-1.51q.248-.957.481-1.933c.153-.646.3-1.3.445-1.956.088-.409.172-.822.254-1.235q.2-1,.387-2.029c.061-.342.126-.68.184-1.024q.253-1.5.468-3.042c.04-.286.074-.577.111-.864q.161-1.241.3-2.507c.035-.33.07-.659.1-.992.107-1.1.2-2.2.28-3.331l0-.043V178.6c.039-.578.052-1.155.052-1.731,0-.174,0-.347-.007-.522q-.012-.643-.054-1.284c-.012-.172-.021-.343-.036-.514-.049-.571-.109-1.141-.192-1.706l0-.017c-.085-.574-.192-1.144-.31-1.713-.035-.165-.074-.33-.111-.494q-.145-.632-.315-1.259c-.044-.163-.087-.326-.134-.488-.161-.554-.332-1.1-.524-1.649l0-.011c-.195-.552-.409-1.1-.632-1.641-.064-.153-.131-.306-.2-.458-.174-.4-.355-.805-.546-1.2-.072-.152-.143-.3-.218-.455-.256-.518-.522-1.032-.8-1.538l-.013-.023c-.287-.515-.591-1.022-.9-1.524-.088-.142-.18-.283-.271-.424q-.358-.558-.737-1.1c-.1-.141-.194-.282-.294-.422-.333-.468-.675-.931-1.029-1.384L249.24,157c-.365-.466-.744-.921-1.13-1.369-.11-.129-.223-.255-.335-.382q-.437-.495-.888-.973c-.12-.128-.24-.255-.361-.381-.389-.4-.785-.8-1.19-1.182l-.063-.062c-.426-.4-.862-.793-1.3-1.175-.13-.112-.263-.222-.394-.332q-.493-.416-1-.814c-.14-.11-.279-.22-.42-.329-.429-.328-.862-.648-1.3-.957l-.1-.073c-.471-.328-.949-.64-1.431-.944-.146-.092-.294-.18-.441-.269q-.533-.327-1.074-.632c-.154-.086-.308-.174-.463-.259-.453-.246-.908-.483-1.367-.707-.048-.023-.095-.049-.142-.072-.5-.242-1.007-.467-1.513-.681-.155-.065-.311-.126-.467-.189q-.559-.226-1.123-.428c-.163-.059-.327-.119-.49-.175q-.7-.238-1.406-.442c-.053-.015-.106-.033-.16-.048l-.039-.01a80.852,80.852,0,0,0,6.058,18.045c9.343,20.765-8.653,37.517-23.014,39.4,1.356,10.626,1.755,16.568,13.816,16.528.961-.006,1.987-.046,3.1-.129a98.977,98.977,0,0,0,16.146-2.783v0Z" transform="translate(-122.074 -88.912)" fill="#fd12ff" style="isolation: isolate"/>
      <path id="Path_3768" data-name="Path 3768" d="M244.145,111.635l.013.015Z" transform="translate(-124.562 -86.259)" fill="lime" style="mix-blend-mode: lighten;isolation: isolate"/>
      <path id="Path_3769" data-name="Path 3769" d="M240.354,107.308c1.156,1.269,2.311,2.593,3.336,3.8C242.807,110.061,241.713,108.793,240.354,107.308Z" transform="translate(-124.253 -85.906)" fill="lime" style="mix-blend-mode: lighten;isolation: isolate"/>
      <path id="Path_3770" data-name="Path 3770" d="M238.376,105.191l-.035-.035.211.221Z" transform="translate(-124.088 -85.73)" fill="lime" style="mix-blend-mode: lighten;isolation: isolate"/>
      <path id="Path_3771" data-name="Path 3771" d="M117.395,124.762a27.885,27.885,0,0,0,2.871,2.826A31.429,31.429,0,0,1,117.395,124.762Z" transform="translate(-114.21 -87.331)" fill="lime" style="mix-blend-mode: lighten;isolation: isolate"/>
      <path id="Path_3772" data-name="Path 3772" d="M178.6,135.22c-.7-24.562,31.992-46.654,47.735-32.456-.054-.051-.1-.1-.157-.153-15.787-13.986-48.316,8.054-47.618,32.555-29.574-10.676-66.8-30.446-64.142-17.191a5.03,5.03,0,0,0,.158.545c.025.065.054.13.081.2a5.549,5.549,0,0,1-.2-.689C111.8,104.774,149.028,124.544,178.6,135.22Z" transform="translate(-113.956 -85.166)" fill="lime" style="mix-blend-mode: lighten;isolation: isolate"/>
      <path id="Path_3773" data-name="Path 3773" d="M126.666,132.436c1.732,1.159,3.614,2.333,5.6,3.527-1.687-1.124-3.362-2.187-5.008-3.162C127.077,132.692,126.875,132.567,126.666,132.436Z" transform="translate(-114.967 -87.958)" fill="lime" style="mix-blend-mode: lighten;isolation: isolate"/>
      <path id="Path_3775" data-name="Path 3775" d="M239.591,106.479l.008.007Z" transform="translate(-124.19 -85.838)" fill="lime" style="mix-blend-mode: lighten;isolation: isolate"/>
      <path id="Path_3777" data-name="Path 3777" d="M247.475,115.732h0s-.46-.646-1.783-2.243c.846,1.029,1.487,1.839,1.783,2.243Z" transform="translate(-124.689 -86.411)" fill="lime" style="mix-blend-mode: lighten;isolation: isolate"/>
      <path id="Path_3778" data-name="Path 3778" d="M184.321,135.225c12.76,4.606,24.1,7.521,30.19,5.356a22.652,22.652,0,0,1,13.728-.206c-3.564-19.226,8.331-21.963,12.686-24.274.078-.041.154-.084.228-.125l.15-.085q.178-.106.331-.212l.077-.056a3.11,3.11,0,0,0,.295-.238l0,0a1.809,1.809,0,0,0,.223-.252c.009-.013.02-.026.029-.039a1.18,1.18,0,0,0,.137-.263c.005-.015.009-.029.014-.044a.994.994,0,0,0,.05-.289c-.3-.4-.938-1.214-1.783-2.243l-.287-.346c-.331-.4-.7-.843-1.12-1.342l-.013-.015-.145-.172c-1.026-1.208-2.18-2.533-3.336-3.8-.227-.248-.451-.494-.692-.754l-.008-.007c-.3-.32-.614-.656-.937-.994l-.211-.221c-.6-.626-1.233-1.23-1.873-1.827C216.313,88.571,183.621,110.663,184.321,135.225Z" transform="translate(-119.675 -85.171)" fill="#fcff58" style="isolation: isolate"/>
      <path id="Path_3779" data-name="Path 3779" d="M131.377,134.537c20.36,12.243,52.345,26.966,59.562,55.873,1.768,7.078,7.715,9.6,14.514,8.784-1.355-10.607-3.675-25.884-19.541-44.556a28.774,28.774,0,0,1-7.306-18.051c-29.574-10.676-66.8-30.446-64.141-17.192a5.549,5.549,0,0,0,.2.689,13.393,13.393,0,0,0,2,3.311c.051.062.1.126.152.189.1.127.22.253.331.38a31.437,31.437,0,0,0,2.871,2.826,58.466,58.466,0,0,0,5.643,4.222c.209.131.411.256.6.365,1.646.975,3.321,2.038,5.008,3.162.325.2.651.392.983.589C131.954,134.929,131.665,134.729,131.377,134.537Z" transform="translate(-113.96 -86.532)" fill="aqua" style="isolation: isolate"/>
      <path id="Path_3780" data-name="Path 3780" d="M214.512,143.864c-6.091,2.165-17.43-.749-30.19-5.356a28.773,28.773,0,0,0,7.306,18.052c15.866,18.672,18.187,33.95,19.541,44.556.039,0,.076-.006.115-.01h0c14.361-1.886,32.357-18.638,23.014-39.4a80.855,80.855,0,0,1-6.058-18.045A22.652,22.652,0,0,0,214.512,143.864Z" transform="translate(-119.676 -88.454)" fill="#fff"/>
      <path id="Path_3781" data-name="Path 3781" d="M213.6,246.674c-.15-.016-.3-.029-.448-.049C213.3,246.645,213.448,246.658,213.6,246.674Z" transform="translate(-122.03 -97.284)" fill="blue" style="mix-blend-mode: lighten;isolation: isolate"/>
      <path id="Path_3782" data-name="Path 3782" d="M216.23,246.815c-.413,0-.825-.009-1.236-.029Q215.61,246.819,216.23,246.815Z" transform="translate(-122.181 -97.297)" fill="blue" style="mix-blend-mode: lighten;isolation: isolate"/>
      <path id="Path_3783" data-name="Path 3783" d="M216.713,244.748c10.925-.221,22.451-8.483,30.4-23.246l-.134.032C239.06,236.224,227.6,244.474,216.713,244.748Z" transform="translate(-122.322 -95.232)" fill="blue" style="mix-blend-mode: lighten;isolation: isolate"/>
      <path id="Path_3784" data-name="Path 3784" d="M220.977,217.5c-12.175.082-12.57-5.856-13.931-16.515-6.85.863-12.853-1.668-14.631-8.788-7.1-28.445-38.187-43.156-58.578-55.284,18.647,12.665,38.444,33.579,36.605,49.473-3.018,26.08,18.76,47.147,33.959,50.851a21.156,21.156,0,0,0,2.271.422c.149.019.3.033.448.049.414.046.828.079,1.245.1s.823.033,1.236.029l.343,0c10.885-.274,22.347-8.524,30.263-23.213a98.673,98.673,0,0,1-16.012,2.75C223.036,217.462,221.972,217.5,220.977,217.5Z" transform="translate(-115.553 -88.324)" fill="blue" style="isolation: isolate"/>
      <path id="Path_3785" data-name="Path 3785" d="M227.488,223.2c-12.061.04-12.46-5.9-13.816-16.528l-.115.013C214.918,217.346,215.313,223.284,227.488,223.2Z" transform="translate(-122.064 -94.021)" fill="blue" style="mix-blend-mode: lighten;isolation: isolate"/>
      <path id="Path_3786" data-name="Path 3786" d="M192.455,192.15c-7.217-28.907-39.2-43.63-59.562-55.873.288.192.578.392.867.589,20.391,12.128,51.477,26.839,58.578,55.284,1.778,7.12,7.781,9.651,14.631,8.787v0C200.17,201.752,194.223,199.227,192.455,192.15Z" transform="translate(-115.476 -88.272)" fill="blue" style="mix-blend-mode: lighten;isolation: isolate"/>
      <path id="Path_3787" data-name="Path 3787" d="M213.557,206.683v0l.115-.013h0C213.633,206.678,213.6,206.678,213.557,206.683Z" transform="translate(-122.064 -94.021)" fill="blue" style="mix-blend-mode: lighten;isolation: isolate"/>
      <path id="Path_3789" data-name="Path 3789" d="M118.542,105.418c23.623-23.64,65.226-26.84,92.978-13.7C183.77,78.541,142.144,81.706,118.5,105.365c-4.321,4.324-5.346,8.135-4.055,11.74C113.187,113.516,114.244,109.72,118.542,105.418Z" transform="translate(-113.927 -84.002)" fill="#5bc95b" opacity="0.97"/>
      <path id="Path_3790" data-name="Path 3790" d="M178.534,134.006c-.7-24.5,31.831-46.541,47.618-32.555l-.029-.028c-.448-.416-.919-.814-1.386-1.215-.386-.332-.764-.669-1.162-.991-.377-.306-.771-.6-1.159-.894-.518-.4-1.034-.8-1.571-1.175-.3-.214-.614-.418-.921-.626-.651-.443-1.3-.883-1.979-1.3-.222-.139-.452-.27-.677-.407-.782-.473-1.573-.938-2.385-1.38-.139-.075-.281-.147-.42-.222-.916-.49-1.846-.968-2.8-1.421l-.146-.068c-27.752-13.14-69.355-9.941-92.978,13.7-4.3,4.3-5.355,8.1-4.095,11.687l.012.033c.026.073.062.145.09.219a5.015,5.015,0,0,1-.158-.545C111.735,103.559,148.96,123.33,178.534,134.006Z" transform="translate(-113.929 -84.006)" fill="#58cb58" style="isolation: isolate"/>
      <path id="Path_3805" data-name="Path 3805" d="M290.7,205.938l-.055.029Z" transform="translate(-128.36 -93.961)" fill="#cc174f"/>
      <path id="Path_3807" data-name="Path 3807" d="M247.661,115.969c12.243,16.846,15.959,28.919,49.819,40.367.786.265,1.537.536,2.265.811-.728-.275-1.478-.546-2.265-.812-33.861-11.448-37.576-23.522-49.819-40.367l-.027-.036h0Z" transform="translate(-124.847 -86.61)" fill="#cc174f"/>
      <path id="Path_3808" data-name="Path 3808" d="M294.653,203.78c-.146.083-.292.164-.439.245C294.361,203.944,294.507,203.863,294.653,203.78Z" transform="translate(-128.652 -93.785)" fill="#cc174f"/>
      <path id="Path_3809" data-name="Path 3809" d="M278.728,211.609l-.037.016Z" transform="translate(-127.383 -94.424)" fill="#cc174f"/>
      <path id="Path_3810" data-name="Path 3810" d="M280.8,210.7l-.062.028Z" transform="translate(-127.55 -94.35)" fill="#cc174f"/>
      <path id="Path_3812" data-name="Path 3812" d="M292.691,204.865l-.346.185Z" transform="translate(-128.499 -93.874)" fill="#cc174f"/>
      <path id="Path_3831" data-name="Path 3831" d="M308.475,182.451c.152-.171.3-.342.443-.511q.264-.311.516-.623c.135-.168.268-.336.4-.5.165-.215.324-.43.479-.644.116-.16.232-.32.342-.479.162-.233.311-.467.46-.7.09-.141.184-.281.269-.421q.3-.489.554-.977c.024-.047.054-.093.078-.14.192-.37.364-.739.523-1.107.051-.12.094-.241.142-.361.1-.252.2-.5.282-.754.048-.14.086-.279.129-.419.07-.231.134-.463.189-.693.035-.144.065-.288.094-.432q.067-.342.114-.682c.019-.141.038-.282.051-.422.023-.236.033-.47.039-.7,0-.129.01-.257.008-.386,0-.269-.023-.537-.049-.8-.009-.091-.011-.182-.022-.273a9.477,9.477,0,0,0-.2-1.077c-.01-.039-.026-.078-.036-.117a9.582,9.582,0,0,0-.294-.937c-.04-.108-.091-.215-.135-.322-.1-.242-.2-.482-.325-.721-.061-.123-.131-.246-.2-.369-.123-.222-.254-.444-.4-.665q-.121-.189-.252-.377c-.154-.22-.32-.437-.492-.655-.1-.119-.19-.24-.291-.359-.2-.23-.408-.457-.626-.684-.1-.1-.191-.206-.294-.307-.292-.288-.605-.573-.935-.856-.044-.038-.082-.076-.127-.114-.386-.326-.8-.648-1.238-.967-.087-.063-.185-.126-.274-.188-.352-.25-.715-.5-1.1-.742-.156-.1-.322-.2-.483-.294-.34-.208-.688-.414-1.052-.618-.19-.107-.387-.212-.585-.318q-.545-.292-1.123-.579c-.211-.1-.425-.209-.644-.312-.407-.194-.83-.385-1.262-.574-.218-.1-.432-.192-.656-.287-.491-.208-1-.412-1.526-.615-.184-.072-.359-.145-.547-.216-.727-.275-1.478-.545-2.265-.811-33.861-11.448-37.576-23.521-49.819-40.367l-.027-.036a.95.95,0,0,1-.05.288c0,.015-.008.029-.014.044a1.12,1.12,0,0,1-.137.263c-.009.014-.02.027-.029.04a1.807,1.807,0,0,1-.223.252l0,0a3.115,3.115,0,0,1-.295.238l-.077.056q-.153.106-.331.212c-.048.028-.1.057-.15.085-.073.041-.15.084-.228.125-4.345,2.318-16.219,5.066-12.666,24.279l.018.006c.053.015.107.033.16.048q.705.2,1.406.442c.163.056.327.116.49.174q.563.2,1.123.428c.155.063.311.124.466.189.508.214,1.013.439,1.513.68.048.023.095.049.142.072.458.224.914.461,1.367.707.155.084.309.173.463.259q.541.306,1.074.632c.147.089.295.177.441.269.482.3.96.616,1.431.944l.1.073c.44.309.873.629,1.3.957.141.108.28.219.42.329q.5.4,1,.814c.131.11.264.22.394.333.442.382.878.771,1.3,1.175l.063.062q.607.577,1.19,1.182c.121.126.241.253.361.381q.452.479.888.973c.112.127.225.253.335.382.387.448.765.9,1.13,1.369l.028.038c.354.453.7.916,1.029,1.384.1.14.2.28.294.422q.378.546.737,1.1c.091.141.183.282.271.424.313.5.617,1.009.9,1.524l.013.023c.282.506.547,1.02.8,1.538.074.151.145.3.218.455q.285.6.546,1.2c.065.153.132.3.2.458.223.543.437,1.089.632,1.641l0,.011c.192.545.364,1.1.524,1.649.047.162.09.325.134.488q.171.627.315,1.259c.037.164.076.329.111.494.118.568.226,1.139.31,1.713l0,.016c.083.566.143,1.135.192,1.706.015.171.024.343.036.514q.041.641.054,1.284c0,.174.007.348.007.522,0,.576-.014,1.153-.052,1.731v.017l0,.042c-.076,1.126-.174,2.232-.28,3.331-.032.332-.068.662-.1.992q-.135,1.266-.3,2.507c-.038.287-.072.579-.111.864q-.214,1.541-.468,3.042c-.058.344-.123.682-.184,1.024q-.185,1.023-.387,2.029-.124.621-.254,1.235c-.142.659-.292,1.31-.445,1.956s-.316,1.295-.481,1.933c-.132.506-.264,1.012-.4,1.51-.144.521-.295,1.034-.447,1.546-.106.353-.213.7-.322,1.05q-.9,2.875-1.945,5.545c-.057.143-.113.287-.17.43a72.781,72.781,0,0,1-3.5,7.528,176.97,176.97,0,0,0,26.634-9.068l.037-.016q.926-.4,1.843-.806l.062-.028c3.1-1.378,6.128-2.831,9.034-4.346l.055-.028q.76-.4,1.508-.8l.346-.186c.461-.249.917-.5,1.37-.751.147-.082.293-.163.439-.245q.656-.366,1.3-.738l.44-.255c.432-.251.86-.5,1.283-.755l.346-.209q2.11-1.273,4.071-2.58c.113-.075.229-.15.34-.225.337-.227.665-.456.994-.683.191-.132.384-.265.573-.4.3-.212.6-.425.89-.639.207-.151.413-.3.617-.452q.416-.309.823-.618.317-.242.627-.485c.257-.2.512-.4.762-.6.211-.17.417-.34.624-.511.237-.2.477-.391.707-.588s.426-.371.637-.557.422-.365.624-.548q.583-.526,1.13-1.056c.168-.162.325-.324.489-.487.213-.212.427-.424.632-.637.163-.17.319-.34.477-.511C308.1,182.863,308.293,182.658,308.475,182.451Z" transform="translate(-123.526 -86.61)" fill="#cc174f" style="isolation: isolate"/>
      <path id="Path_3832" data-name="Path 3832" d="M259.606,189.169c-.038.287-.072.579-.111.864C259.534,189.748,259.568,189.456,259.606,189.169Z" transform="translate(-125.816 -92.592)" fill="#cc174f"/>
      <path id="Path_3833" data-name="Path 3833" d="M260.1,175.38l0,.017Z" transform="translate(-125.865 -91.466)" fill="#cc174f"/>
      <path id="Path_3834" data-name="Path 3834" d="M254.676,161.354c.091.141.183.282.271.424C254.859,161.636,254.767,161.5,254.676,161.354Z" transform="translate(-125.422 -90.32)" fill="#cc174f"/>
      <path id="Path_3835" data-name="Path 3835" d="M260.41,179.214c0,.175.007.348.007.522C260.417,179.562,260.413,179.389,260.41,179.214Z" transform="translate(-125.89 -91.779)" fill="#cc174f"/>
      <path id="Path_3836" data-name="Path 3836" d="M260.312,177.256c.015.171.024.343.036.514C260.336,177.6,260.327,177.427,260.312,177.256Z" transform="translate(-125.883 -91.619)" fill="#cc174f"/>
      <path id="Path_3837" data-name="Path 3837" d="M259.641,172.977c.037.164.076.329.111.494C259.717,173.306,259.678,173.141,259.641,172.977Z" transform="translate(-125.828 -91.269)" fill="#cc174f"/>
      <path id="Path_3838" data-name="Path 3838" d="M255.956,163.476l.013.023Z" transform="translate(-125.527 -90.493)" fill="#cc174f"/>
      <path id="Path_3839" data-name="Path 3839" d="M256.845,165.176c.074.151.145.3.218.455C256.99,165.479,256.919,165.327,256.845,165.176Z" transform="translate(-125.599 -90.632)" fill="#cc174f"/>
      <path id="Path_3840" data-name="Path 3840" d="M257.676,166.981c.065.152.132.3.2.458C257.808,167.286,257.741,167.133,257.676,166.981Z" transform="translate(-125.667 -90.78)" fill="#cc174f"/>
      <path id="Path_3841" data-name="Path 3841" d="M258.578,169.267l0,.011Z" transform="translate(-125.741 -90.966)" fill="#cc174f"/>
      <path id="Path_3842" data-name="Path 3842" d="M259.152,171.075c.047.162.09.325.134.488C259.242,171.4,259.2,171.237,259.152,171.075Z" transform="translate(-125.788 -91.114)" fill="#cc174f"/>
      <path id="Path_3843" data-name="Path 3843" d="M260.043,185.359c-.033.332-.068.662-.1.992C259.975,186.021,260.011,185.691,260.043,185.359Z" transform="translate(-125.852 -92.28)" fill="#cc174f"/>
      <path id="Path_3844" data-name="Path 3844" d="M256.6,203.971c-.145.521-.295,1.034-.447,1.546C256.3,205.005,256.455,204.492,256.6,203.971Z" transform="translate(-125.543 -93.801)" fill="#cc174f"/>
      <path id="Path_3845" data-name="Path 3845" d="M255.628,206.8q-.9,2.874-1.945,5.545Q254.73,209.671,255.628,206.8Z" transform="translate(-125.341 -94.031)" fill="#cc174f"/>
      <path id="Path_3846" data-name="Path 3846" d="M260.357,181.727l0-.042v0Z" transform="translate(-125.886 -91.979)" fill="#cc174f"/>
      <path id="Path_3847" data-name="Path 3847" d="M249.688,220.831a72.79,72.79,0,0,0,3.5-7.528,73.064,73.064,0,0,1-3.5,7.528Z" transform="translate(-125.014 -94.563)" fill="#cc174f"/>
      <path id="Path_3848" data-name="Path 3848" d="M257.559,200.222q-.232.977-.481,1.933C257.243,201.517,257.4,200.874,257.559,200.222Z" transform="translate(-125.618 -93.494)" fill="#cc174f"/>
      <path id="Path_3849" data-name="Path 3849" d="M258.969,193.423c-.058.344-.122.682-.184,1.024C258.846,194.105,258.911,193.767,258.969,193.423Z" transform="translate(-125.758 -92.939)" fill="#cc174f"/>
      <path id="Path_3850" data-name="Path 3850" d="M258.341,196.747c-.083.413-.166.826-.254,1.235Q258.218,197.369,258.341,196.747Z" transform="translate(-125.701 -93.211)" fill="#cc174f"/>
      <path id="Path_3851" data-name="Path 3851" d="M237.806,146.263c.048.023.095.049.142.072C237.9,146.312,237.854,146.286,237.806,146.263Z" transform="translate(-124.044 -89.087)" fill="#cc174f"/>
      <path id="Path_3852" data-name="Path 3852" d="M235.65,145.316c.155.063.311.124.467.189C235.961,145.44,235.805,145.379,235.65,145.316Z" transform="translate(-123.868 -89.01)" fill="#cc174f"/>
      <path id="Path_3853" data-name="Path 3853" d="M239.449,147.111c.155.085.309.173.463.259C239.758,147.284,239.6,147.2,239.449,147.111Z" transform="translate(-124.178 -89.157)" fill="#cc174f"/>
      <path id="Path_3854" data-name="Path 3854" d="M243.161,149.4l.1.073Z" transform="translate(-124.482 -89.344)" fill="#cc174f"/>
      <path id="Path_3855" data-name="Path 3855" d="M253.554,159.693c.1.14.2.28.294.422C253.75,159.973,253.654,159.833,253.554,159.693Z" transform="translate(-125.331 -90.184)" fill="#cc174f"/>
      <path id="Path_3856" data-name="Path 3856" d="M233.893,144.66c.163.056.327.116.49.174C234.22,144.776,234.056,144.716,233.893,144.66Z" transform="translate(-123.725 -88.957)" fill="#cc174f"/>
      <path id="Path_3857" data-name="Path 3857" d="M232.188,144.127c.053.015.107.033.16.048C232.295,144.16,232.241,144.142,232.188,144.127Z" transform="translate(-123.586 -88.913)" fill="#cc174f"/>
      <path id="Path_3858" data-name="Path 3858" d="M241.123,148.081c.147.089.295.177.441.269C241.418,148.258,241.27,148.17,241.123,148.081Z" transform="translate(-124.315 -89.236)" fill="#cc174f"/>
      <path id="Path_3859" data-name="Path 3859" d="M249.447,154.763c.121.126.241.254.361.381C249.688,155.017,249.568,154.889,249.447,154.763Z" transform="translate(-124.995 -89.782)" fill="#cc174f"/>
      <path id="Path_3860" data-name="Path 3860" d="M250.807,156.238c.112.127.225.253.335.382C251.032,156.491,250.919,156.365,250.807,156.238Z" transform="translate(-125.106 -89.902)" fill="#cc174f"/>
      <path id="Path_3861" data-name="Path 3861" d="M252.4,158.145l.028.038Z" transform="translate(-125.237 -90.058)" fill="#cc174f"/>
      <path id="Path_3862" data-name="Path 3862" d="M248.082,153.408l.063.063Z" transform="translate(-124.884 -89.671)" fill="#cc174f"/>
      <path id="Path_3863" data-name="Path 3863" d="M246.233,151.767c.131.11.264.22.394.332C246.5,151.987,246.364,151.877,246.233,151.767Z" transform="translate(-124.732 -89.537)" fill="#cc174f"/>
      <path id="Path_3864" data-name="Path 3864" d="M244.689,150.523c.14.108.28.219.42.329C244.969,150.742,244.829,150.631,244.689,150.523Z" transform="translate(-124.607 -89.435)" fill="#cc174f"/>
      <path id="Path_3865" data-name="Path 3865" d="M247.634,115.932h0Z" transform="translate(-124.847 -86.61)" fill="#cc174f"/>
      <path id="Path_3866" data-name="Path 3866" d="M247.58,116.221a.949.949,0,0,0,.05-.288h0A.99.99,0,0,1,247.58,116.221Z" transform="translate(-124.843 -86.61)" fill="#cc174f"/>
      <path id="Path_3867" data-name="Path 3867" d="M247.364,116.624a1.8,1.8,0,0,1-.223.252A1.8,1.8,0,0,0,247.364,116.624Z" transform="translate(-124.807 -86.667)" fill="#cc174f"/>
      <path id="Path_3868" data-name="Path 3868" d="M247.553,116.295a1.181,1.181,0,0,1-.137.263A1.126,1.126,0,0,0,247.553,116.295Z" transform="translate(-124.829 -86.64)" fill="#cc174f"/>
      <path id="Path_3869" data-name="Path 3869" d="M246.188,117.547c-.073.041-.15.084-.228.125C246.038,117.631,246.114,117.588,246.188,117.547Z" transform="translate(-124.71 -86.742)" fill="#cc174f"/>
      <path id="Path_3870" data-name="Path 3870" d="M246.7,117.223q-.153.106-.331.212Q246.549,117.329,246.7,117.223Z" transform="translate(-124.744 -86.716)" fill="#cc174f"/>
      <path id="Path_3871" data-name="Path 3871" d="M247.11,116.9a3.112,3.112,0,0,1-.295.238A3.112,3.112,0,0,0,247.11,116.9Z" transform="translate(-124.78 -86.69)" fill="#cc174f"/>
    </g>
    <g id="Group_996" data-name="Group 996" transform="translate(856.005 6456.219)">
      <path id="Path_3655" data-name="Path 3655" d="M341.137,177.764h4.372a1.282,1.282,0,0,0,1.033-.478,1.686,1.686,0,0,0,.4-1.112V120.222a1.539,1.539,0,0,0-.4-1.072,1.335,1.335,0,0,0-1.033-.437h-4.372a1.333,1.333,0,0,0-1.034.437,1.536,1.536,0,0,0-.4,1.072v55.952a1.682,1.682,0,0,0,.4,1.112A1.28,1.28,0,0,0,341.137,177.764Z" transform="translate(-339.706 -118.156)" fill="#fff"/>
      <path id="Path_3656" data-name="Path 3656" d="M366.569,172.646a17.544,17.544,0,0,0,6.6,4.212,22.1,22.1,0,0,0,7.432,1.311q5.642,0,9.259-.361t6.556-.845a1.585,1.585,0,0,0,1.43-1.768v-26.75a1.6,1.6,0,0,0-.437-1.112,1.4,1.4,0,0,0-1.073-.478h-4.291a1.28,1.28,0,0,0-1.034.478,1.681,1.681,0,0,0-.4,1.112v22.731q-1.43.159-3.894.317t-6.119.159a13.617,13.617,0,0,1-5.206-.99,10.746,10.746,0,0,1-4.252-3.214,16.054,16.054,0,0,1-2.861-5.673,29.473,29.473,0,0,1-1.033-8.371V142.771a28.908,28.908,0,0,1,1.152-8.847,15.022,15.022,0,0,1,3.1-5.633,10.541,10.541,0,0,1,4.49-2.936,17.01,17.01,0,0,1,5.325-.833q2.542,0,4.569.04t3.775.079q1.748.041,3.378.159t3.377.278h.318q1.033,0,1.034-.8V120.31a.938.938,0,0,0-.4-.875,2.557,2.557,0,0,0-.954-.318q-2.306-.4-5.921-.754T381.313,118a26.284,26.284,0,0,0-7.63,1.153,16.974,16.974,0,0,0-6.835,4.014,21.116,21.116,0,0,0-4.928,7.629,32.564,32.564,0,0,0-1.907,12v10.65a32.17,32.17,0,0,0,1.827,11.564A21.645,21.645,0,0,0,366.569,172.646Z" transform="translate(-344.038 -118.005)" fill="#fff"/>
      <path id="Path_3657" data-name="Path 3657" d="M454.637,177.764h4.874a2.187,2.187,0,0,0,1.612-.676,2.237,2.237,0,0,0,.667-1.629V120.222a1.547,1.547,0,0,0-.393-1.072,1.309,1.309,0,0,0-1.02-.437h-4.165a1.312,1.312,0,0,0-1.022.437,1.546,1.546,0,0,0-.392,1.072v46.494c0,.159-.027.238-.079.238l-.16-.238-24.4-46.414a3.312,3.312,0,0,0-1.033-1.232,4.614,4.614,0,0,0-2.226-.358h-4.371a2.29,2.29,0,0,0-1.629.636,2.091,2.091,0,0,0-.676,1.589v55.872c0,.425.131.689.4.8a2.815,2.815,0,0,0,1.033.159h4.133a1.333,1.333,0,0,0,1.034-.437,1.539,1.539,0,0,0,.4-1.073V129.839c0-.159.026-.238.079-.238s.132.079.239.238l24.557,46.653A2.563,2.563,0,0,0,454.637,177.764Z" transform="translate(-356.881 -118.156)" fill="#fff"/>
      <path id="Path_3658" data-name="Path 3658" d="M487.724,177.764H492.1a1.282,1.282,0,0,0,1.033-.478,1.686,1.686,0,0,0,.4-1.112V120.222a1.54,1.54,0,0,0-.4-1.072,1.335,1.335,0,0,0-1.033-.437h-4.372a1.33,1.33,0,0,0-1.032.437,1.533,1.533,0,0,0-.4,1.072v55.952a1.679,1.679,0,0,0,.4,1.112A1.277,1.277,0,0,0,487.724,177.764Z" transform="translate(-370.974 -118.156)" fill="#fff"/>
      <path id="Path_3659" data-name="Path 3659" d="M545.6,123.576v-3.452q0-1.411-1.51-1.412H505.865a1.7,1.7,0,0,0-1.112.393,1.261,1.261,0,0,0-.477,1.02v3.452a1.051,1.051,0,0,0,.477.942,1.982,1.982,0,0,0,1.112.313h15.5v51.34a1.685,1.685,0,0,0,.4,1.115,1.279,1.279,0,0,0,1.034.478h4.371a1.282,1.282,0,0,0,1.033-.478,1.689,1.689,0,0,0,.4-1.115v-51.34h15.5Q545.6,124.832,545.6,123.576Z" transform="translate(-374.81 -118.156)" fill="#fff"/>
      <path id="Path_3660" data-name="Path 3660" d="M569.451,128.972a5.014,5.014,0,0,1,1.391-2.583,6.127,6.127,0,0,1,2.94-1.43,23.73,23.73,0,0,1,5.087-.437h15.339q.874,0,.875-.953v-3.974a1.337,1.337,0,0,0-.2-.716.879.879,0,0,0-.6-.4q-1.273-.078-3.18-.2t-4.054-.158l-4.331-.08q-2.187-.039-3.934-.039-8.426,0-12.676,3.417t-4.252,11.365v30.6q0,7.949,4.252,11.365t12.676,3.417h3.974q2.224,0,4.412-.079t4.093-.12a26.557,26.557,0,0,0,3.021-.2.869.869,0,0,0,.6-.4,1.327,1.327,0,0,0,.2-.715v-4.053q0-.954-.875-.954H578.87a23.524,23.524,0,0,1-5.087-.438,6.116,6.116,0,0,1-2.94-1.435,5.012,5.012,0,0,1-1.391-2.554,17.616,17.616,0,0,1-.357-3.868v-13.4h24.4a1.53,1.53,0,0,0,1.112-.471,1.494,1.494,0,0,0,.478-1.1V145.4a1.5,1.5,0,0,0-.478-1.1,1.536,1.536,0,0,0-1.112-.47h-24.4V132.788A17.625,17.625,0,0,1,569.451,128.972Z" transform="translate(-387.093 -118.005)" fill="#fff"/>
      <path id="Path_3661" data-name="Path 3661" d="M346.741,243.643a1.493,1.493,0,0,0-1.493,1.493,1.456,1.456,0,0,0,1.493,1.449,1.437,1.437,0,0,0,1.471-1.449A1.474,1.474,0,0,0,346.741,243.643Z" transform="translate(-340.888 -144.804)" fill="#fff"/>
      <path id="Path_3662" data-name="Path 3662" d="M351.224,243.643a1.475,1.475,0,0,0-1.471,1.493,1.471,1.471,0,0,0,2.942,0A1.475,1.475,0,0,0,351.224,243.643Z" transform="translate(-341.849 -144.804)" fill="#fff"/>
      <path id="Path_3663" data-name="Path 3663" d="M378.576,217.972c-2.5,0-4.593,2.429-4.593,5.1,0,2.406,1.717,3.878,4.48,3.878a8.511,8.511,0,0,0,3.032-.4,1.589,1.589,0,0,1-.981,1.448,10.124,10.124,0,0,1-2.831.268h-6.531c-1.047,0-1.627-.513-2.429-2.3l-.2-.468a7.539,7.539,0,0,0-2.073-2.987,4.332,4.332,0,0,0-2.7-.846c-1.783,0-3.3,1.136-4.3,3.366l-.736,1.627c-.535,1.16-1.026,1.6-2.185,1.6h-5.8v2.9h.58c1.493,0,2.14.4,2.14,1,0,.824-1.672,1.448-5.618,1.448-3.41,0-5.1-1.181-5.1-3.589a13.886,13.886,0,0,1,.334-2.63h-2.631a13.867,13.867,0,0,0-.4,3.255c0,4.1,2.519,6.152,7.624,6.152,5.283,0,8.18-1.939,8.18-4.012a1.9,1.9,0,0,0-.579-1.426h.624l.023-.022v.022a3.707,3.707,0,0,0,3.789-2.14c.446,1.6,1.716,2.384,3.566,2.384,2.028,0,3.3-.869,3.767-2.742.958,1.783,2.05,2.5,3.5,2.5h7.022c2.207,0,3.767-.446,4.681-1.315s1.359-2.452,1.359-4.7C383.59,220.825,381.5,217.972,378.576,217.972Zm-.023,6.442c-1.449,0-2.452-.424-2.452-1.494a1.989,1.989,0,0,1,2.14-1.984c1.516,0,2.853,1.2,3.21,3.255A15.966,15.966,0,0,1,378.553,224.414Zm-15.2,4.1c-1.516,0-2.341-.625-2.341-1.695a2.207,2.207,0,0,1,2.318-2.095c1.315,0,2.207.669,2.942,2.363l.067.156C366,228.069,364.978,228.515,363.351,228.515Z" transform="translate(-339.776 -139.329)" fill="#fff"/>
      <path id="Path_3664" data-name="Path 3664" d="M384.775,213.975a1.471,1.471,0,1,0,1.471-1.472A1.455,1.455,0,0,0,384.775,213.975Z" transform="translate(-349.319 -138.162)" fill="#fff"/>
      <path id="Path_3665" data-name="Path 3665" d="M389.252,213.975a1.471,1.471,0,1,0,1.471-1.472A1.455,1.455,0,0,0,389.252,213.975Z" transform="translate(-350.275 -138.162)" fill="#fff"/>
      <path id="Path_3666" data-name="Path 3666" d="M407.061,224.656a3.664,3.664,0,0,1-.423,2.14,2.166,2.166,0,0,1-1.672.513h0c-1.448,0-2.161-.6-2.406-2.362l-.379-2.452h-2.764a27.335,27.335,0,0,1,.646,5.707c0,3.009-1.249,4.457-3.143,4.457a12.782,12.782,0,0,1-1.717-.156v3.1a12.012,12.012,0,0,0,1.984.134c2.965,0,4.637-2.229,4.837-6.419a2.585,2.585,0,0,0,2.318,1.093h1.048c3.054,0,4.5-1.761,4.5-5.484V213.467h-2.831Z" transform="translate(-351.543 -138.368)" fill="#fff"/>
      <rect id="Rectangle_147" data-name="Rectangle 147" width="2.831" height="16.94" transform="translate(61.67 75.099)" fill="#fff"/>
      <path id="Path_3667" data-name="Path 3667" d="M448.154,227.588l-2.631-.4c-1.136-.179-1.6-.446-1.6-1.048a2.932,2.932,0,0,1,2.831-2.518,1.7,1.7,0,0,1,1.872,1.47h2.586c-.2-2.964-1.716-4.569-3.945-4.569-2.92,0-5.752,3.21-5.752,6.2,0,1.894,1.115,3.1,3.255,3.388l2.5.356c1.492.2,2.118.535,2.118,1.182,0,.713-.491,1.315-1.494,1.783a9.205,9.205,0,0,1-4.012.736c-3.456,0-5.083-1.226-5.083-3.723a13.633,13.633,0,0,1,.29-2.5h-2.631a16.629,16.629,0,0,0-.334,3.076c0,4.258,2.451,6.331,7.556,6.331,4.658,0,8.247-2.541,8.247-6.13C451.921,229.26,451.008,227.966,448.154,227.588Z" transform="translate(-360.271 -139.872)" fill="#fff"/>
      <path id="Path_3668" data-name="Path 3668" d="M479.793,222.529a1.315,1.315,0,1,0-1.315-1.315A1.3,1.3,0,0,0,479.793,222.529Z" transform="translate(-369.307 -139.74)" fill="#fff"/>
      <path id="Path_3669" data-name="Path 3669" d="M483.845,222.529a1.315,1.315,0,1,0-1.315-1.315A1.3,1.3,0,0,0,483.845,222.529Z" transform="translate(-370.171 -139.74)" fill="#fff"/>
      <path id="Path_3670" data-name="Path 3670" d="M500.978,227.309a4.592,4.592,0,0,1-.423-2.251V213.467h-2.831v11.591a3.665,3.665,0,0,0,.869,2.675,8.582,8.582,0,0,0-2.919-.424h0c-1.694,0-2.318-.423-2.318-1.471v-.2a3.819,3.819,0,0,1,1.026-.112h.78v-2.764h-.647a8.522,8.522,0,0,1-1.76-.179,16.784,16.784,0,0,1-2.185-.713l-2.965-1a9.084,9.084,0,0,0-2.853-.647c-2.163,0-3.5,1.516-3.567,4.1h2.408a1.077,1.077,0,0,1,1.159-1,5.235,5.235,0,0,1,1.828.4l1.872.647a13.216,13.216,0,0,0,1.96.557c-.423.157-.869.379-1.337.58l-1.516.714a10.973,10.973,0,0,1-5.327,1.092H480.6c-1.6,0-2.14-.445-2.14-2.385v-2.429H475.79v2.429c0,1.694-.558,2.385-2.14,2.385h-5.528c-.29-4.258-2.185-6.6-4.77-6.6-2.742,0-4.793,2.563-4.793,5.416,0,2.608,1.717,4.28,5.171,4.28h2.251c-.378,1.783-1.559,2.429-3.878,2.429a12.991,12.991,0,0,1-3.21-.423v2.942a14.182,14.182,0,0,0,3.254.378c3.589,0,5.438-2.006,5.885-5.327h4.993c1.872,0,3.009-.87,3.3-2.5.334,1.627,1.583,2.5,3.656,2.5h2.252a9.49,9.49,0,0,0,6.285-2.006l1.561-1.07,1.137-.714c.112,2.474,1.426,3.79,3.834,3.79,3.343,0,4.637.245,6.553,1.248l1.025.558,1.516-2.72-1.449-.758A4.438,4.438,0,0,1,500.978,227.309Zm-37.536,0c-1.962,0-2.764-.468-2.764-1.56a2.1,2.1,0,0,1,2.117-2.095c1.762,0,2.965,1.248,3.256,3.655Z" transform="translate(-365.058 -138.368)" fill="#fff"/>
      <rect id="Rectangle_148" data-name="Rectangle 148" width="2.831" height="16.94" transform="translate(140.78 75.099)" fill="#fff"/>
      <path id="Path_3671" data-name="Path 3671" d="M543.11,234.318a1.475,1.475,0,0,0,1.494,1.471,1.471,1.471,0,0,0,0-2.942A1.475,1.475,0,0,0,543.11,234.318Z" transform="translate(-383.093 -142.501)" fill="#fff"/>
      <path id="Path_3672" data-name="Path 3672" d="M557.965,222.241c-2.073,0-3.456,1.159-4.548,3.566l-.445.914a5.106,5.106,0,0,1-1.071,1.672,2.211,2.211,0,0,1-1.493.445c-1.694,0-2.319-.423-2.319-1.471v-.936c.357-.022.714-.022,1.093-.022h.446l.022-2.942h-.423a8.659,8.659,0,0,1-3.589-1l-2.452-1.026a8.733,8.733,0,0,0-3.232-.8c-2.163,0-3.5,1.516-3.589,4.1h2.407a1.105,1.105,0,0,1,1.2-1,5.771,5.771,0,0,1,1.939.423l1.716.647.736.267c-5.684.913-8.426,3.7-8.426,7.6a5.831,5.831,0,0,0,2.05,4.659,8.664,8.664,0,0,0,5.729,1.739,15.651,15.651,0,0,0,5.907-1.16v-3.255a15.764,15.764,0,0,1-5.729,1.115c-3.388,0-5.283-1.293-5.283-3.678,0-2.5,2.542-4.748,7.29-5.461v1.026c0,2.764,1.292,4.28,3.878,4.28a3.978,3.978,0,0,0,3.5-1.449,6.135,6.135,0,0,0,4.5,1.694c2.92,0,4.637-1.738,4.637-4.659C562.422,224.424,560.5,222.241,557.965,222.241Zm.066,6.843a5.382,5.382,0,0,1-3.387-1.115l.2-.4c.713-1.627,1.627-2.274,3.166-2.274a2.132,2.132,0,0,1,2.3,2.095C560.305,228.57,559.569,229.083,558.031,229.083Z" transform="translate(-381.564 -139.897)" fill="#fff"/>
      <path id="Path_3673" data-name="Path 3673" d="M582.516,220.461a1.471,1.471,0,1,0,0-2.942,1.471,1.471,0,1,0,0,2.942Z" transform="translate(-391.18 -139.232)" fill="#fff"/>
      <path id="Path_3674" data-name="Path 3674" d="M582.436,220.934h-2.72a35.191,35.191,0,0,1,.334,3.9c0,1.717-.49,2.474-2.185,2.474-1.6,0-2.095-.557-2.095-2.251V213.467h-2.853v12.126c0,3.277,1.182,4.815,4.057,4.815h.245l.023-.022v.022h.824c3.1,0,4.681-1.806,4.681-5.216A35.409,35.409,0,0,0,582.436,220.934Z" transform="translate(-389.451 -138.368)" fill="#fff"/>
      <path id="Path_3675" data-name="Path 3675" d="M596.8,222.959a35.357,35.357,0,0,1,.334,3.9c0,1.717-.49,2.474-2.185,2.474-1.449,0-2.162-.6-2.407-2.362l-.379-2.452H589.4a27.324,27.324,0,0,1,.646,5.707c0,3.009-1.248,4.457-3.142,4.457a12.783,12.783,0,0,1-1.717-.156v3.1a12,12,0,0,0,1.983.134c2.965,0,4.637-2.229,4.837-6.419a2.586,2.586,0,0,0,2.318,1.093h.825c3.1,0,4.681-1.805,4.681-5.216a35.423,35.423,0,0,0-.311-4.258Z" transform="translate(-392.068 -140.392)" fill="#fff"/>
      <path id="Path_3676" data-name="Path 3676" d="M600.705,236.871a1.471,1.471,0,1,0,0,2.942,1.471,1.471,0,0,0,0-2.942Z" transform="translate(-395.06 -143.36)" fill="#fff"/>
    </g>
  </g>
</svg>
