<svg xmlns="http://www.w3.org/2000/svg" width="36" height="36" viewBox="0 0 36 36"><defs><style>.a{fill:#96bfe8;}</style></defs><path class="a" d="M34.037,1.963A6.659,6.659,0,0,0,29.3,0H6.7A6.711,6.711,0,0,0,0,6.7V29.3A6.711,6.711,0,0,0,6.7,36H29.3A6.711,6.711,0,0,0,36,29.3V6.7A6.659,6.659,0,0,0,34.037,1.963ZM11.662,15.293a1.055,1.055,0,0,1,1.492,0l3.791,3.791V7.833a1.055,1.055,0,0,1,2.109,0V19.084l3.791-3.791a1.055,1.055,0,0,1,1.492,1.492l-5.592,5.592a1.054,1.054,0,0,1-1.491,0l-5.592-5.592A1.055,1.055,0,0,1,11.662,15.293Zm16.5,13.929H7.833a1.055,1.055,0,0,1,0-2.109H28.167a1.055,1.055,0,0,1,0,2.109Z"/></svg>