<svg width="38" height="52" viewBox="0 0 38 52" fill="none" xmlns="http://www.w3.org/2000/svg">
    <path d="M34.8009 26.8732L31.7 23.7723C30.9629 23.1369 30.5309 22.1965 30.5054 21.1544C30.4546 20.0107 30.9121 18.8669 31.7509 18.0282L34.8009 14.9782C37.4442 12.3348 38.4354 9.79315 37.5967 7.78524C36.7834 5.80274 34.2671 4.70982 30.5563 4.70982H3.99585V2.52399C3.99585 1.4819 3.13168 0.617737 2.0896 0.617737C1.04752 0.617737 0.18335 1.4819 0.18335 2.52399V49.5448C0.18335 50.5869 1.04752 51.4511 2.0896 51.4511C3.13168 51.4511 3.99585 50.5869 3.99585 49.5448V37.1415H30.5563C34.2163 37.1415 36.6817 36.0232 37.5204 34.0152C38.3592 32.0073 37.3934 29.4911 34.8009 26.8732Z"
          fill="currentColor"/>
</svg>
