<svg xmlns="http://www.w3.org/2000/svg" width="1348.882" height="1064.853" viewBox="0 0 1348.882 1064.853"><defs><style>.a{fill:gray;}</style></defs><path class="a" d="M1233.229,1569.7c-2.928,0-5.761-.116-7.9-.215-3.114-.158-6.235-.408-9.287-.746l-.617-.062c-.894-.089-1.8-.183-2.7-.3a157.385,157.385,0,0,1-16.869-3.14c-58.389-14.23-124.2-61.18-171.741-122.529-26.63-34.36-46.559-71.538-59.237-110.5a311.1,311.1,0,0,1-13.657-132.869C963.48,1093.366,829.108,949.973,699.04,861.556c-2.113-1.255-4.2-2.509-6.273-3.757l-.815-.5c-12.086-8.057-23.749-15.421-34.664-21.89-1.356-.807-2.83-1.718-4.358-2.676l-.141-.091a420.117,420.117,0,0,1-40.411-30.235,230.611,230.611,0,0,1-21-20.66c-.332-.382-.585-.669-.836-.953-.616-.7-1.177-1.333-1.7-1.969-.219-.256-.5-.609-.779-.96l-.347-.433a102.539,102.539,0,0,1-14.841-24.271l-.107.039-1.063-2.844c-.022-.061-.051-.12-.078-.181l-.042-.094c-.205-.472-.4-.947-.57-1.416l-.065-.184c-10.575-30.109-.5-59.956,30.781-91.265,40.745-40.776,90.17-74.3,146.9-99.633,53.261-23.786,111.49-39.766,173.069-47.5a667.266,667.266,0,0,1,178.349,1.531c59.063,8.518,113.915,24.628,163.031,47.885l1.03.479c6.224,2.966,12.749,6.281,19.971,10.147.44.239.846.452,1.252.664l.124.064c.538.281,1.079.565,1.614.855,5.116,2.789,10.536,5.926,17.063,9.873.58.353,1.146.69,1.713,1.026l.172.1c.993.588,1.988,1.179,2.963,1.788,4.813,2.994,9.438,6.111,14.147,9.308q1.04.706,2.083,1.4c1.479.991,3.01,2.017,4.525,3.093,3.409,2.413,6.7,4.931,9.881,7.367l1.376,1.053c.826.634,1.641,1.253,2.456,1.869,1.82,1.38,3.886,2.945,5.863,4.549,2.121,1.714,4.145,3.473,6.1,5.173l.313.274q.957.83,1.915,1.656l1.6,1.369c2.752,2.36,5.6,4.8,8.367,7.37l2.433,2.28-.025.028c3.894,3.653,8.261,7.83,12.379,12.124l1.474,1.544c2.23,2.336,4.4,4.635,6.45,6.839l.223.227c1.4,1.511,2.682,2.91,3.954,4.3l.989,1.082c7.384,8.1,15.539,17.394,23.586,26.873.362.427.709.834,1.017,1.2l.09.1c1.936,2.3,3.7,4.422,5.338,6.388l4.574,5.493c5.773,7.032,10.563,13.065,12.83,16.155l1.165,1.608c12.352,17.049,23.391,33.266,34.065,48.949,61.527,90.391,110.123,161.785,309.453,229.18,5.315,1.8,10.6,3.688,16.155,5.785.821.308,1.622.628,2.422.949.546.22,1.019.408,1.5.6,4.108,1.594,7.682,3.034,10.923,4.4,1.409.6,2.764,1.2,4.128,1.8l.607.268c3.421,1.5,6.389,2.852,9.063,4.126,1.548.727,3.1,1.488,4.64,2.25,2.764,1.373,5.493,2.782,8.113,4.185,1.432.765,2.87,1.534,4.253,2.312,2.4,1.341,4.832,2.77,7.656,4.495.41.252.8.49,1.2.726l.159.1c.72.432,1.439.866,2.133,1.3,2.714,1.734,5.363,3.521,8.111,5.474.166.115.388.264.613.414.523.355.97.659,1.39.965,3.294,2.4,6.384,4.809,9.182,7.172.27.228.519.455.766.684l.125.116c2.676,2.3,4.982,4.406,7.067,6.469.488.476.988,1.006,1.489,1.539l.177.187c.167.179.336.357.507.534,2,2.071,3.47,3.683,4.8,5.24.612.724,1.178,1.431,1.739,2.132l.466.583c1.446,1.814,2.686,3.462,3.8,5.045.694,1,1.349,1.972,1.975,2.947,1.059,1.647,2.094,3.383,3.079,5.158l.082.147c.549.979,1.041,1.863,1.5,2.781.82,1.616,1.634,3.417,2.552,5.652.1.249.2.471.294.692.279.643.536,1.246.763,1.856.882,2.378,1.655,4.83,2.3,7.292v0c.1.3.194.613.274.914a76.467,76.467,0,0,1,1.616,8.73c.067.541.1,1.057.14,1.575l.008.13c.009.137.017.276.031.414l.006.048c.234,2.435.354,4.458.38,6.364.011.819-.012,1.633-.041,2.446l-.02.649c-.041,1.476-.112,3.454-.313,5.536-.089.917-.2,1.84-.326,2.771-.227,1.7-.658,4.328-.961,5.853-.262,1.32-.5,2.4-.738,3.388-.387,1.635-.864,3.384-1.453,5.336l-.24.8c-.237.812-.484,1.634-.769,2.46-.656,1.978-1.441,3.972-2.122,5.683-.14.349-.257.653-.373.958-.225.587-.45,1.167-.7,1.749-1.3,3.005-2.591,5.742-3.963,8.393-.147.283-.318.581-.49.876l-.1.179c-1.256,2.383-2.661,4.863-4.128,7.285-.466.759-.928,1.476-1.4,2.2l-.613.949c-1.086,1.7-2.173,3.4-3.4,5.168-.734,1.062-1.515,2.139-2.294,3.214l-.219.3c-1.291,1.782-2.406,3.278-3.505,4.708-.962,1.242-1.93,2.464-2.912,3.683-1.264,1.564-2.529,3.093-3.764,4.545-1.087,1.277-2.142,2.515-3.236,3.742-1.191,1.354-2.467,2.742-3.764,4.153l-.913.99c-.98,1.061-1.895,2.049-2.844,3.038-1.448,1.5-2.925,2.975-4.568,4.609l-1.112,1.118c-.793.8-1.589,1.6-2.421,2.4-2.591,2.508-5.323,5.06-8.109,7.581-1.027.932-2.109,1.876-3.192,2.817l-1.783,1.561c-1.331,1.176-2.669,2.358-4.054,3.54s-2.8,2.347-4.221,3.514l-1.658,1.365c-1.2.99-2.405,1.981-3.637,2.97-1.777,1.434-3.605,2.87-5.443,4.306-1.477,1.151-2.959,2.3-4.46,3.445-1.949,1.482-3.9,2.947-5.868,4.408-1.126.837-2.275,1.673-3.425,2.511l-.96.7c-2.1,1.528-4.2,3.049-6.354,4.563-1.108.781-2.245,1.569-3.376,2.35l-1.887,1.309c-1.96,1.358-3.891,2.7-5.866,4.024-.476.323-.978.651-1.48.981l-.948.625c-9.2,6.139-18.909,12.292-28.836,18.28l-2.437,1.476q-4.516,2.695-9.1,5.353c-1.014.594-2.068,1.207-3.128,1.813-3.044,1.753-6.14,3.509-9.2,5.216-.806.456-1.652.927-2.5,1.4l-.586.325c-3.216,1.783-6.436,3.556-9.694,5.314-.8.436-1.638.882-2.472,1.325-3.415,1.84-6.994,3.736-10.624,5.629l-.409.211c-20.178,10.515-41.628,20.833-63.751,30.665l-.43.192c-4.3,1.907-8.675,3.821-13,5.686l-.318.135c-5.065,2.179-10.24,4.365-15.362,6.49a832.885,832.885,0,0,0-245.479,156.869c-43.918,40.413-92.677,62.418-141,63.634-.934.015-1.784.022-2.625.022C1234.04,1569.695,1233.633,1569.7,1233.229,1569.7ZM695.3,852.168l.643.393q3.109,1.873,6.3,3.775l.159.1c69.37,47.147,135.411,106.96,181.188,164.1,54.009,67.419,79.5,129.489,73.715,179.5a305.04,305.04,0,0,0,13.4,130.271c12.458,38.292,32.059,74.844,58.254,108.644,46.737,60.3,111.243,106.415,168.348,120.33a151.31,151.31,0,0,0,16.21,3.017c.837.109,1.679.2,2.522.279l.651.066c2.954.328,5.953.568,8.935.719,2.341.109,5.541.241,8.744.2.849,0,1.666-.007,2.539-.022,46.792-1.176,94.17-22.622,136.981-62.017a838.965,838.965,0,0,1,247.278-158.017c5.1-2.116,10.249-4.291,15.307-6.468l.316-.133c4.281-1.848,8.635-3.752,12.916-5.652l.428-.19c22.007-9.78,43.344-20.044,63.416-30.5l.408-.211c3.6-1.877,7.152-3.759,10.557-5.594.832-.442,1.652-.878,2.445-1.31,3.248-1.753,6.447-3.514,9.641-5.287l.584-.324c.836-.464,1.669-.927,2.475-1.384,3.047-1.7,6.12-3.446,9.149-5.19,1.049-.6,2.083-1.2,3.089-1.791q4.57-2.653,9.032-5.313l2.426-1.468c9.852-5.941,19.479-12.045,28.617-18.142l.966-.637c.486-.317.965-.633,1.424-.942,1.956-1.316,3.864-2.638,5.767-3.957l1.924-1.336c1.119-.773,2.239-1.549,3.335-2.321,2.127-1.5,4.2-3,6.273-4.506l.909-.661c1.186-.866,2.319-1.69,3.432-2.517q2.928-2.173,5.8-4.36,2.219-1.7,4.408-3.405c1.811-1.413,3.612-2.829,5.368-4.247,1.216-.977,2.4-1.953,3.587-2.928l1.659-1.366c1.393-1.146,2.785-2.294,4.141-3.448s2.666-2.312,3.98-3.474l1.8-1.579c1.058-.919,2.105-1.833,3.1-2.74,2.741-2.478,5.421-4.985,7.971-7.451.8-.771,1.562-1.539,2.325-2.307l1.128-1.134c1.63-1.62,3.082-3.07,4.485-4.525.918-.956,1.8-1.916,2.69-2.873l.973-1.056c1.263-1.373,2.508-2.73,3.685-4.066,1.076-1.208,2.1-2.408,3.156-3.649,1.2-1.413,2.433-2.9,3.663-4.422q1.432-1.778,2.829-3.58c1.056-1.375,2.138-2.827,3.395-4.562l.2-.277c.769-1.061,1.522-2.1,2.233-3.126,1.168-1.685,2.219-3.323,3.282-4.992l.628-.971c.442-.681.878-1.355,1.306-2.053,1.4-2.3,2.741-4.68,3.99-7.045l.165-.293c.134-.23.252-.432.353-.628,1.308-2.525,2.541-5.137,3.772-7.986.209-.494.408-1.011.607-1.528.128-.333.257-.673.409-1.049.644-1.619,1.388-3.516,2.005-5.367.262-.765.481-1.5.7-2.236l.247-.822c.554-1.842,1-3.476,1.363-5,.224-.922.441-1.918.686-3.152.282-1.417.684-3.87.9-5.467.115-.855.22-1.706.3-2.551.184-1.9.25-3.736.288-5.128l.023-.674c.024-.724.048-1.437.037-2.156-.022-1.736-.135-3.6-.351-5.858-.026-.27-.04-.468-.052-.663l-.007-.115c-.027-.4-.055-.807-.107-1.225a70.37,70.37,0,0,0-1.471-7.966c-.03-.107-.077-.262-.13-.424l-.105-.329a70.754,70.754,0,0,0-2.148-6.844c-.189-.509-.406-1.01-.624-1.512-.131-.3-.247-.57-.361-.855-.849-2.065-1.6-3.725-2.351-5.208-.407-.816-.861-1.633-1.371-2.54l-.088-.159c-.93-1.674-1.9-3.295-2.883-4.83-.587-.913-1.2-1.824-1.843-2.749-1.033-1.471-2.2-3.022-3.564-4.732l-.465-.581c-.529-.663-1.06-1.324-1.626-2-1.233-1.45-2.631-2.975-4.521-4.938-.184-.188-.377-.392-.571-.6l-.176-.187c-.445-.475-.884-.94-1.323-1.369-2-1.975-4.2-3.988-6.742-6.172-.1-.082-.2-.181-.312-.281-.19-.178-.37-.342-.563-.505-2.685-2.269-5.657-4.591-8.834-6.9-.369-.269-.76-.534-1.149-.8-.3-.2-.561-.377-.776-.527-2.685-1.908-5.252-3.641-7.867-5.309-.64-.4-1.322-.814-2-1.224l-.162-.1c-.411-.247-.824-.5-1.244-.755-2.745-1.677-5.114-3.067-7.447-4.373-1.352-.759-2.752-1.507-4.147-2.252-2.569-1.375-5.243-2.756-7.951-4.1-1.494-.743-3.01-1.484-4.533-2.2-2.63-1.254-5.54-2.578-8.912-4.057l-.557-.248c-1.392-.616-2.717-1.2-4.092-1.785-3.184-1.344-6.7-2.763-10.758-4.336-.505-.2-1-.394-1.494-.593-.823-.329-1.585-.634-2.369-.929-5.491-2.072-10.71-3.941-15.957-5.715-201.277-68.051-250.383-140.2-312.554-231.531-10.653-15.65-21.665-31.829-33.967-48.806l-1.154-1.595c-2.192-2.99-6.906-8.924-12.6-15.858l-4.543-5.457c-1.648-1.979-3.407-4.09-5.307-6.353l-.1-.11c-.332-.4-.664-.788-1.017-1.2-8.005-9.431-16.11-18.666-23.444-26.713l-.986-1.08c-1.261-1.379-2.528-2.766-3.873-4.213l-.221-.226q-3.118-3.354-6.443-6.831l-1.468-1.538c-4.442-4.63-9.217-9.158-13.3-12.975-.136-.122-.314-.273-.492-.424s-.349-.3-.522-.448l-2.328-2.056.1-.11c-2.046-1.835-4.136-3.627-6.174-5.374l-1.6-1.371q-.974-.836-1.94-1.679l-.317-.274c-1.917-1.665-3.9-3.388-5.938-5.037-1.9-1.543-3.925-3.075-5.709-4.427-.826-.625-1.65-1.251-2.482-1.89l-1.356-1.037c-3.155-2.415-6.4-4.9-9.717-7.246-1.452-1.031-2.948-2.033-4.394-3q-1.06-.709-2.114-1.423c-4.655-3.159-9.225-6.24-13.946-9.176-.94-.586-1.893-1.152-2.849-1.717l-.174-.1c-.586-.348-1.173-.7-1.764-1.058-6.44-3.894-11.785-6.987-16.813-9.729-.5-.271-1.011-.538-1.522-.806l-.128-.066c-.431-.226-.865-.452-1.318-.7-7.121-3.812-13.562-7.086-19.674-10l-1.023-.476c-48.583-23-102.847-38.938-161.3-47.368a661.192,661.192,0,0,0-176.71-1.516c-60.98,7.657-118.625,23.474-171.334,47.014-56.042,25.028-104.848,58.125-145.063,98.369-29.077,29.1-38.8,56.531-29.7,83.825l.256-.093,1.133,3.512c.08.253.157.508.247.756l.085.212a96.4,96.4,0,0,0,14.388,23.81l.383.477c.243.305.476.6.681.839.51.617,1.028,1.2,1.545,1.788.319.359.583.659.9,1.023a224.289,224.289,0,0,0,20.388,20.055,413.72,413.72,0,0,0,39.766,29.754l.085.054c1.456.913,2.889,1.8,4.2,2.58C671.4,836.652,683.144,844.064,695.3,852.168Z" transform="translate(-566.897 -504.843)"/></svg>