<svg width="97" height="98" viewBox="0 0 97 98" fill="none" xmlns="http://www.w3.org/2000/svg">
    <path opacity="0.4"
          d="M48.4999 89.8017C70.8214 89.8017 88.9166 71.7066 88.9166 49.3851C88.9166 27.0635 70.8214 8.96838 48.4999 8.96838C26.1784 8.96838 8.08325 27.0635 8.08325 49.3851C8.08325 71.7066 26.1784 89.8017 48.4999 89.8017Z"
          fill="white"/>
    <path d="M24.25 61.0655C22.5929 61.0655 21.2188 59.6913 21.2188 58.0342V40.6954C21.2188 39.0384 22.5929 37.6642 24.25 37.6642C25.9071 37.6642 27.2812 39.0384 27.2812 40.6954V58.0342C27.2812 59.7317 25.9071 61.0655 24.25 61.0655Z"
          fill="white"/>
    <path d="M36.375 66.845C34.7179 66.845 33.3438 65.4708 33.3438 63.8137V34.9562C33.3438 33.2991 34.7179 31.9249 36.375 31.9249C38.0321 31.9249 39.4062 33.2991 39.4062 34.9562V63.8137C39.4062 65.5112 38.0321 66.845 36.375 66.845Z"
          fill="white"/>
    <path d="M48.5 72.6246C46.8429 72.6246 45.4688 71.2504 45.4688 69.5933V29.1766C45.4688 27.5196 46.8429 26.1454 48.5 26.1454C50.1571 26.1454 51.5312 27.5196 51.5312 29.1766V69.5933C51.5312 71.2504 50.1571 72.6246 48.5 72.6246Z"
          fill="white"/>
    <path d="M60.625 66.845C58.9679 66.845 57.5938 65.4708 57.5938 63.8137V34.9562C57.5938 33.2991 58.9679 31.9249 60.625 31.9249C62.2821 31.9249 63.6562 33.2991 63.6562 34.9562V63.8137C63.6562 65.5112 62.2821 66.845 60.625 66.845Z"
          fill="white"/>
    <path d="M72.75 61.0655C71.0929 61.0655 69.7188 59.6913 69.7188 58.0342V40.6954C69.7188 39.0384 71.0929 37.6642 72.75 37.6642C74.4071 37.6642 75.7812 39.0384 75.7812 40.6954V58.0342C75.7812 59.7317 74.4071 61.0655 72.75 61.0655Z"
          fill="white"/>
</svg>
