<svg width="98" height="100" viewBox="0 0 98 100" fill="currentColor" xmlns="http://www.w3.org/2000/svg">
    <path opacity="0.4"
          d="M89.8334 83.6738V51.1275C89.8334 28.0275 71.4584 9.13501 49.0001 9.13501C26.5417 9.13501 8.16675 28.0275 8.16675 51.1275V83.6738C8.16675 88.8713 11.2292 90.2738 14.9858 86.8088L19.0692 83.055C20.58 81.6525 23.0301 81.6525 24.541 83.055L32.7076 90.6038C34.2185 92.0063 36.6683 92.0063 38.1791 90.6038L46.3458 83.055C47.8567 81.6525 50.3068 81.6525 51.8176 83.055L59.9843 90.6038C61.4951 92.0063 63.9452 92.0063 65.456 90.6038L73.6227 83.055C75.1335 81.6525 77.5834 81.6525 79.0942 83.055L83.1776 86.8088C86.7709 90.2738 89.8334 88.8713 89.8334 83.6738Z"
          fill="white"/>
    <path d="M49.0002 67.1738C42.5893 67.1738 36.1785 65.1526 30.8293 61.1101C29.4818 60.0788 29.1961 58.1401 30.2169 56.7788C31.2378 55.4176 33.1569 55.1288 34.5044 56.16C43.0386 62.6363 54.9618 62.6363 63.496 56.16C64.8435 55.1288 66.7626 55.4176 67.7834 56.7788C68.8042 58.1401 68.5186 60.0788 67.1711 61.1101C61.8219 65.1526 55.411 67.1738 49.0002 67.1738Z"
          fill="white"/>
    <path d="M49.0001 47.8275C54.3674 47.8275 58.7184 43.4321 58.7184 38.01C58.7184 32.588 54.3674 28.1925 49.0001 28.1925C43.6328 28.1925 39.2817 32.588 39.2817 38.01C39.2817 43.4321 43.6328 47.8275 49.0001 47.8275Z"
          fill="white"/>
</svg>
