<svg width="98" height="99" viewBox="0 0 98 99" fill="none" xmlns="http://www.w3.org/2000/svg">
    <path opacity="0.4"
          d="M66.1093 9.05164H31.8909C17.0276 9.05164 8.16675 17.9125 8.16675 32.7758V66.9533C8.16675 81.8575 17.0276 90.7183 31.8909 90.7183H66.0684C80.9318 90.7183 89.7926 81.8575 89.7926 66.9941V32.7758C89.8334 17.9125 80.9726 9.05164 66.1093 9.05164Z"
          fill="white"/>
    <path d="M37.1584 49.885V43.8416C37.1584 36.0425 42.6709 32.8983 49.4084 36.7775L54.6351 39.7991L59.8618 42.8208C66.5993 46.7 66.5993 53.07 59.8618 56.9491L54.6351 59.9708L49.4084 62.9925C42.6709 66.8716 37.1584 63.6866 37.1584 55.9283V49.885Z"
          fill="white"/>
</svg>
