<svg width="97" height="99" viewBox="0 0 97 99" fill="none" xmlns="http://www.w3.org/2000/svg">
    <path opacity="0.4"
          d="M52.5417 14.1559H28.2917C14.4692 14.1559 9.09375 19.5867 9.09375 33.5517V66.2184C9.09375 75.61 14.1458 85.6142 28.2917 85.6142H52.5417C66.3642 85.6142 71.7396 80.1834 71.7396 66.2184V33.5517C71.7396 19.5867 66.3642 14.1559 52.5417 14.1559Z"
          fill="white"/>
    <path d="M46.4792 47.3533C50.6756 47.3533 54.0775 43.9164 54.0775 39.6767C54.0775 35.437 50.6756 32 46.4792 32C42.2827 32 38.8809 35.437 38.8809 39.6767C38.8809 43.9164 42.2827 47.3533 46.4792 47.3533Z"
          fill="white"/>
    <path d="M87.502 26.0792C85.8449 25.2217 82.3691 24.2417 77.6404 27.59L71.6587 31.8367C71.6991 32.4083 71.7395 32.9392 71.7395 33.5517V66.2183C71.7395 66.8308 71.6587 67.3617 71.6587 67.9333L77.6404 72.18C80.1462 73.9767 82.3287 74.5483 84.0666 74.5483C85.562 74.5483 86.7341 74.14 87.502 73.7317C89.1591 72.8742 91.9479 70.5467 91.9479 64.7075V35.1033C91.9479 29.2642 89.1591 26.9367 87.502 26.0792Z"
          fill="white"/>
</svg>
