<svg width="44" height="43" viewBox="0 0 44 43" fill="none" xmlns="http://www.w3.org/2000/svg">
<path opacity="0.4" d="M29.8825 4.01489H14.8683C8.34666 4.01489 4.45874 7.81239 4.45874 14.1824V28.8299C4.45874 35.2174 8.34666 39.0149 14.8683 39.0149H29.8646C36.3862 39.0149 40.2742 35.2174 40.2742 28.8474V14.1824C40.2921 7.81239 36.4042 4.01489 29.8825 4.01489Z" fill="white"/>
<path d="M17.1796 21.515V18.925C17.1796 15.5825 19.5983 14.235 22.5546 15.8975L24.8479 17.1925L27.1412 18.4875C30.0975 20.15 30.0975 22.88 27.1412 24.5425L24.8479 25.8375L22.5546 27.1325C19.5983 28.795 17.1796 27.43 17.1796 24.105V21.515Z" fill="white"/>
</svg>
