<svg width="44" height="44" viewBox="0 0 44 44" fill="none" xmlns="http://www.w3.org/2000/svg">
<path opacity="0.4" d="M22.3754 39.4315C32.2705 39.4315 40.2921 31.4099 40.2921 21.5148C40.2921 11.6197 32.2705 3.59814 22.3754 3.59814C12.4803 3.59814 4.45874 11.6197 4.45874 21.5148C4.45874 31.4099 12.4803 39.4315 22.3754 39.4315Z" fill="white"/>
<path d="M11.6254 26.6929C10.8908 26.6929 10.2816 26.0837 10.2816 25.3491V17.6628C10.2816 16.9283 10.8908 16.3191 11.6254 16.3191C12.3599 16.3191 12.9691 16.9283 12.9691 17.6628V25.3491C12.9691 26.1016 12.3599 26.6929 11.6254 26.6929Z" fill="white"/>
<path d="M17.0004 29.2549C16.2658 29.2549 15.6566 28.6458 15.6566 27.9112V15.1187C15.6566 14.3841 16.2658 13.7749 17.0004 13.7749C17.7349 13.7749 18.3441 14.3841 18.3441 15.1187V27.9112C18.3441 28.6637 17.7349 29.2549 17.0004 29.2549Z" fill="white"/>
<path d="M22.3754 31.8171C21.6408 31.8171 21.0316 31.2079 21.0316 30.4733V12.5566C21.0316 11.8221 21.6408 11.2129 22.3754 11.2129C23.1099 11.2129 23.7191 11.8221 23.7191 12.5566V30.4733C23.7191 31.2079 23.1099 31.8171 22.3754 31.8171Z" fill="white"/>
<path d="M27.7504 29.2549C27.0158 29.2549 26.4066 28.6458 26.4066 27.9112V15.1187C26.4066 14.3841 27.0158 13.7749 27.7504 13.7749C28.4849 13.7749 29.0941 14.3841 29.0941 15.1187V27.9112C29.0941 28.6637 28.4849 29.2549 27.7504 29.2549Z" fill="white"/>
<path d="M33.1254 26.6929C32.3908 26.6929 31.7816 26.0837 31.7816 25.3491V17.6628C31.7816 16.9283 32.3908 16.3191 33.1254 16.3191C33.8599 16.3191 34.4691 16.9283 34.4691 17.6628V25.3491C34.4691 26.1016 33.8599 26.6929 33.1254 26.6929Z" fill="white"/>
</svg>
