<svg xmlns="http://www.w3.org/2000/svg" width="1202.103" height="948.981" viewBox="0 0 1202.103 948.981"><defs><style>.a{fill:#5bc95b;}</style></defs><path class="a" d="M1160.721,1453.824c-2.61,0-5.134-.1-7.041-.192-2.775-.141-5.557-.364-8.277-.665l-.55-.055c-.8-.079-1.6-.163-2.4-.267a140.261,140.261,0,0,1-15.034-2.8c-52.036-12.682-110.681-54.523-153.053-109.2-23.732-30.621-41.493-63.754-52.791-98.479A277.244,277.244,0,0,1,909.4,1123.76c10.923-94.435-108.828-222.224-224.742-301.02-1.883-1.118-3.741-2.236-5.591-3.349l-.726-.447c-10.771-7.18-21.165-13.743-30.892-19.508-1.208-.72-2.522-1.531-3.884-2.385l-.126-.081a374.423,374.423,0,0,1-36.014-26.945,205.523,205.523,0,0,1-18.714-18.412c-.3-.34-.521-.6-.745-.849-.549-.621-1.049-1.188-1.517-1.754-.195-.228-.447-.542-.694-.855l-.309-.386a91.38,91.38,0,0,1-13.226-21.63l-.1.035-.947-2.534c-.02-.055-.045-.107-.069-.161l-.037-.084c-.183-.42-.359-.844-.508-1.262l-.058-.164c-9.424-26.833-.449-53.432,27.431-81.334,36.311-36.339,80.358-66.212,130.913-88.791,47.465-21.2,99.358-35.439,154.237-42.33a594.658,594.658,0,0,1,158.942,1.365c52.636,7.591,101.519,21.948,145.291,42.675l.918.427c5.547,2.643,11.361,5.6,17.8,9.043.392.213.754.4,1.115.591l.11.057c.479.25.962.5,1.439.762,4.559,2.486,9.39,5.281,15.207,8.8.517.315,1.022.615,1.527.914l.153.091c.885.524,1.772,1.051,2.641,1.593,4.289,2.668,8.411,5.446,12.608,8.295q.927.629,1.856,1.249c1.318.884,2.682,1.8,4.033,2.756,3.038,2.15,5.971,4.395,8.806,6.565l1.227.938c.736.565,1.462,1.116,2.188,1.666,1.622,1.23,3.463,2.624,5.225,4.054,1.89,1.528,3.694,3.095,5.438,4.61l.279.244q.853.74,1.707,1.476l1.422,1.22c2.452,2.1,4.99,4.279,7.457,6.568l2.168,2.032-.022.025c3.47,3.256,7.362,6.978,11.032,10.8l1.314,1.376c1.987,2.082,3.924,4.131,5.748,6.095l.2.2c1.252,1.347,2.39,2.593,3.524,3.833l.882.965c6.581,7.221,13.848,15.5,21.019,23.949.323.38.631.743.906,1.073l.08.092c1.725,2.054,3.3,3.941,4.757,5.692l4.076,4.9c5.145,6.267,9.414,11.643,11.434,14.4l1.038,1.433c11.008,15.194,20.845,29.646,30.359,43.623,54.832,80.555,98.14,144.18,275.78,204.241,4.737,1.6,9.447,3.287,14.4,5.156.732.275,1.446.56,2.158.845.487.2.908.364,1.338.531,3.661,1.42,6.846,2.7,9.734,3.924,1.256.531,2.463,1.066,3.679,1.6l.541.238c3.049,1.338,5.694,2.541,8.077,3.677,1.379.648,2.767,1.326,4.135,2.005,2.463,1.224,4.9,2.48,7.23,3.73,1.276.682,2.558,1.367,3.79,2.06,2.137,1.195,4.307,2.469,6.823,4.005.366.225.717.437,1.068.647l.142.086c.641.385,1.283.772,1.9,1.16,2.419,1.545,4.779,3.137,7.228,4.878.148.1.346.236.546.369.466.317.865.587,1.238.86,2.936,2.135,5.689,4.286,8.183,6.392.24.2.462.406.682.61l.112.1c2.385,2.046,4.44,3.926,6.3,5.765.435.424.881.9,1.327,1.371l.157.167c.149.159.3.318.452.476,1.779,1.845,3.092,3.282,4.274,4.67.545.645,1.05,1.275,1.55,1.9l.415.519c1.288,1.617,2.394,3.086,3.385,4.5.619.89,1.2,1.757,1.761,2.626.944,1.468,1.866,3.015,2.744,4.6l.073.131c.49.873.927,1.661,1.337,2.479.731,1.44,1.456,3.045,2.274,5.037.09.222.177.419.262.617.248.573.478,1.11.68,1.654.786,2.119,1.475,4.3,2.048,6.5v0c.088.271.173.546.245.814a68.162,68.162,0,0,1,1.44,7.78c.06.482.094.942.125,1.4l.007.115c.008.122.016.246.027.369l.005.043c.208,2.17.316,3.973.339,5.672.01.73-.011,1.455-.036,2.179l-.018.579c-.036,1.316-.1,3.078-.279,4.934-.079.817-.18,1.64-.29,2.469-.2,1.518-.586,3.857-.856,5.216-.234,1.177-.442,2.135-.658,3.019-.345,1.457-.77,3.016-1.295,4.755l-.214.712c-.211.723-.431,1.456-.685,2.192-.585,1.762-1.284,3.54-1.891,5.064-.125.311-.229.582-.332.854-.2.523-.4,1.04-.621,1.559-1.156,2.678-2.309,5.117-3.531,7.48-.131.252-.283.518-.437.781l-.091.159c-1.119,2.124-2.371,4.334-3.679,6.492-.415.676-.827,1.316-1.244,1.956l-.546.846c-.968,1.52-1.936,3.027-3.03,4.606-.654.946-1.35,1.906-2.045,2.865l-.195.267c-1.15,1.588-2.144,2.921-3.124,4.2-.857,1.107-1.72,2.2-2.6,3.282-1.126,1.394-2.254,2.756-3.354,4.05-.969,1.138-1.909,2.241-2.884,3.335-1.061,1.207-2.2,2.444-3.354,3.7l-.813.883c-.874.945-1.689,1.826-2.534,2.707-1.29,1.338-2.607,2.651-4.071,4.107l-.991,1c-.707.713-1.416,1.428-2.157,2.139-2.309,2.235-4.744,4.51-7.227,6.756-.915.831-1.88,1.672-2.844,2.51l-1.589,1.391c-1.187,1.048-2.379,2.1-3.613,3.155s-2.5,2.092-3.762,3.132l-1.478,1.217c-1.071.883-2.144,1.765-3.241,2.647-1.583,1.278-3.213,2.558-4.851,3.837-1.317,1.026-2.637,2.046-3.974,3.07-1.737,1.32-3.473,2.626-5.229,3.928-1,.746-2.027,1.491-3.052,2.237l-.855.623c-1.868,1.362-3.744,2.717-5.662,4.066-.987.7-2,1.4-3.008,2.095l-1.682,1.167c-1.747,1.21-3.468,2.4-5.228,3.586-.424.287-.872.58-1.319.874l-.844.557c-8.2,5.471-16.852,10.955-25.7,16.291l-2.172,1.315q-4.025,2.4-8.11,4.771c-.9.53-1.843,1.076-2.788,1.616-2.713,1.562-5.472,3.127-8.195,4.649-.718.406-1.472.826-2.232,1.249l-.522.289c-2.866,1.589-5.735,3.169-8.64,4.736-.714.389-1.46.786-2.2,1.181-3.044,1.64-6.233,3.329-9.468,5.016l-.365.188c-17.982,9.37-37.1,18.566-56.814,27.329l-.383.171c-3.834,1.7-7.731,3.405-11.582,5.067l-.283.12c-4.514,1.942-9.125,3.89-13.691,5.783a742.255,742.255,0,0,0-218.767,139.8c-39.139,36.016-82.592,55.626-125.661,56.709-.833.014-1.59.02-2.339.02C1161.445,1453.823,1161.082,1453.824,1160.721,1453.824ZM681.33,814.374l.573.35q2.771,1.669,5.616,3.364l.142.09c61.821,42.017,120.676,95.321,161.471,146.246,48.132,60.083,70.849,115.4,65.694,159.965a271.848,271.848,0,0,0,11.939,116.1c11.1,34.125,28.571,66.7,51.915,96.822,41.651,53.743,99.138,94.835,150.029,107.236a134.852,134.852,0,0,0,14.446,2.689c.746.1,1.5.174,2.247.248l.581.059c2.632.292,5.3.506,7.963.641,2.086.1,4.938.215,7.793.179.757,0,1.485-.006,2.263-.019,41.7-1.048,83.923-20.16,122.075-55.269a747.672,747.672,0,0,1,220.371-140.823c4.544-1.885,9.134-3.824,13.641-5.764l.281-.118c3.815-1.647,7.7-3.344,11.51-5.037l.381-.169c19.612-8.716,38.627-17.863,56.515-27.184l.364-.188c3.206-1.672,6.374-3.35,9.408-4.985.742-.394,1.472-.783,2.179-1.168,2.894-1.562,5.745-3.132,8.592-4.712l.521-.288c.745-.413,1.488-.826,2.206-1.234,2.715-1.517,5.454-3.071,8.154-4.625.935-.534,1.856-1.069,2.752-1.6q4.073-2.364,8.049-4.735l2.162-1.308c8.78-5.295,17.359-10.734,25.5-16.167l.861-.568c.433-.283.86-.564,1.269-.84,1.743-1.173,3.443-2.351,5.139-3.526l1.714-1.19c1-.689,2-1.38,2.972-2.068,1.9-1.334,3.746-2.67,5.591-4.015l.81-.589c1.057-.771,2.066-1.506,3.058-2.243q2.61-1.937,5.173-3.885,1.978-1.514,3.928-3.035c1.614-1.259,3.219-2.521,4.783-3.784,1.084-.871,2.141-1.741,3.2-2.61l1.479-1.218c1.241-1.021,2.482-2.045,3.69-3.073s2.376-2.061,3.547-3.1l1.607-1.408c.943-.819,1.876-1.633,2.767-2.441,2.442-2.208,4.831-4.442,7.1-6.641.715-.687,1.392-1.371,2.072-2.056l1.005-1.011c1.452-1.444,2.747-2.736,4-4.033.818-.852,1.608-1.707,2.4-2.56l.867-.941c1.126-1.224,2.236-2.433,3.284-3.623.959-1.076,1.871-2.146,2.813-3.252,1.069-1.259,2.168-2.586,3.265-3.941q1.276-1.585,2.521-3.19c.941-1.225,1.905-2.52,3.026-4.066l.179-.247c.685-.945,1.357-1.87,1.99-2.786,1.041-1.5,1.977-2.961,2.925-4.449l.56-.865c.394-.607.782-1.207,1.164-1.83,1.244-2.053,2.443-4.171,3.556-6.278l.147-.261c.119-.2.225-.385.315-.56,1.166-2.25,2.265-4.578,3.362-7.117.187-.44.364-.9.541-1.361.114-.3.229-.6.365-.934.574-1.443,1.237-3.134,1.787-4.783.234-.682.429-1.336.621-1.993l.22-.732c.494-1.642.892-3.1,1.215-4.46.2-.822.393-1.71.611-2.809.251-1.263.61-3.449.8-4.872.1-.762.2-1.521.267-2.273.164-1.69.223-3.329.257-4.57l.02-.6c.022-.645.043-1.28.033-1.921-.02-1.547-.12-3.2-.313-5.22-.024-.241-.035-.417-.046-.591l-.006-.1c-.025-.358-.049-.719-.1-1.092a62.71,62.71,0,0,0-1.311-7.1c-.026-.1-.068-.234-.115-.378l-.094-.293a63.08,63.08,0,0,0-1.915-6.1c-.168-.454-.362-.9-.556-1.348-.117-.27-.22-.508-.322-.762-.756-1.84-1.424-3.319-2.1-4.641-.363-.727-.767-1.455-1.222-2.264l-.078-.142c-.829-1.492-1.691-2.936-2.57-4.3-.523-.813-1.068-1.625-1.642-2.45-.921-1.311-1.962-2.693-3.177-4.218l-.414-.518c-.471-.591-.944-1.18-1.449-1.779-1.1-1.292-2.345-2.652-4.029-4.4-.164-.167-.336-.349-.509-.533l-.156-.167c-.4-.423-.788-.838-1.179-1.22-1.779-1.76-3.74-3.554-6.008-5.5-.086-.073-.182-.161-.278-.25-.169-.158-.329-.3-.5-.45-2.393-2.022-5.042-4.091-7.873-6.148-.329-.24-.677-.476-1.024-.712-.269-.181-.5-.336-.692-.469-2.393-1.7-4.681-3.245-7.011-4.732-.57-.36-1.178-.725-1.786-1.091l-.145-.086c-.367-.22-.734-.442-1.108-.672-2.447-1.494-4.558-2.733-6.637-3.9-1.2-.676-2.452-1.343-3.7-2.007-2.289-1.226-4.672-2.456-7.086-3.655-1.331-.662-2.682-1.322-4.04-1.959-2.344-1.117-4.937-2.3-7.943-3.615l-.5-.221c-1.241-.549-2.421-1.071-3.647-1.591-2.837-1.2-5.973-2.462-9.587-3.864-.45-.176-.891-.351-1.331-.529-.734-.293-1.412-.565-2.111-.828-4.894-1.846-9.544-3.512-14.22-5.093-179.375-60.646-223.138-124.94-278.543-206.337-9.493-13.947-19.308-28.366-30.271-43.5l-1.028-1.421c-1.954-2.664-6.155-7.953-11.229-14.132l-4.049-4.864c-1.469-1.763-3.036-3.645-4.73-5.662l-.085-.1c-.3-.353-.591-.7-.906-1.071-7.134-8.4-14.357-16.635-20.893-23.806l-.879-.963c-1.124-1.229-2.253-2.465-3.451-3.754l-.2-.2q-2.779-2.989-5.742-6.087l-1.308-1.37c-3.958-4.127-8.214-8.161-11.854-11.563-.121-.108-.279-.243-.439-.378s-.311-.264-.465-.4l-2.075-1.833.088-.1c-1.823-1.635-3.686-3.232-5.5-4.789l-1.424-1.222q-.868-.745-1.729-1.5l-.282-.244c-1.709-1.484-3.474-3.019-5.292-4.489-1.7-1.375-3.5-2.741-5.087-3.945-.736-.557-1.47-1.115-2.212-1.684l-1.208-.924c-2.812-2.152-5.7-4.364-8.66-6.458-1.294-.919-2.627-1.812-3.915-2.675q-.944-.632-1.884-1.268c-4.148-2.815-8.221-5.561-12.429-8.177-.838-.522-1.687-1.026-2.539-1.531l-.155-.092c-.522-.31-1.046-.621-1.572-.943-5.739-3.47-10.5-6.227-14.984-8.671-.446-.242-.9-.479-1.357-.718l-.114-.059c-.384-.2-.771-.4-1.175-.622-6.347-3.4-12.087-6.315-17.533-8.909L1185,558.5c-43.3-20.5-91.656-34.7-143.752-42.214a589.244,589.244,0,0,0-157.481-1.351c-54.344,6.823-105.717,20.92-152.691,41.9-49.944,22.3-93.439,51.8-129.278,87.665-25.913,25.933-34.58,50.38-26.472,74.7l.228-.083,1.01,3.13c.071.226.14.452.22.673l.076.189a85.914,85.914,0,0,0,12.823,21.219l.341.425c.217.272.424.533.607.748.455.55.916,1.071,1.377,1.593.284.32.52.588.8.912a199.9,199.9,0,0,0,18.169,17.873A368.705,368.705,0,0,0,646.42,792.4l.076.048c1.3.813,2.575,1.6,3.745,2.3C660.032,800.546,670.495,807.151,681.33,814.374Z" transform="translate(-566.897 -504.843)"/></svg>