<?xml version="1.0" standalone="no"?>
<!DOCTYPE svg PUBLIC "-//W3C//DTD SVG 20010904//EN"
        "http://www.w3.org/TR/2001/REC-SVG-20010904/DTD/svg10.dtd">
<svg version="1.0" xmlns="http://www.w3.org/2000/svg"
     width="1470.000000pt" height="631.000000pt" viewBox="0 0 1470.000000 631.000000"
     preserveAspectRatio="xMidYMid meet">

    <g transform="translate(0.000000,631.000000) scale(0.100000,-0.100000)"
       fill="#0f1464" stroke="none">
        <path d="M12516 4861 c-16 -25 -716 -1988 -712 -1997 4 -11 95 -49 100 -43 23
29 974 1885 968 1891 -7 7 -73 37 -274 124 -43 18 -80 30 -82 25z"/>
        <path d="M6890 4495 l0 -265 370 0 370 0 0 265 0 265 -370 0 -370 0 0 -265z"/>
        <path d="M1440 3345 l0 -1305 360 0 360 0 0 1305 0 1305 -360 0 -360 0 0
-1305z"/>
        <path d="M8020 4315 l0 -255 -120 0 -120 0 0 -280 0 -280 119 0 120 0 3 -497
c4 -474 5 -502 26 -576 58 -210 198 -344 408 -391 209 -46 457 -25 652 56 l72
30 0 278 0 278 -86 -30 c-150 -52 -284 -39 -336 32 -32 45 -38 125 -36 475 l3
340 233 3 232 2 0 280 0 280 -235 0 -235 0 0 255 0 255 -350 0 -350 0 0 -255z"/>
        <path d="M10125 4103 c-163 -26 -343 -105 -470 -206 -181 -146 -305 -353 -354
-594 -28 -136 -29 -359 -2 -488 84 -405 388 -701 802 -780 315 -59 631 -6 865
147 79 52 259 220 252 237 -3 8 -349 298 -375 314 -8 5 -38 -14 -80 -48 -115
-95 -244 -145 -373 -145 -77 0 -174 22 -232 51 -61 31 -135 111 -168 181 -52
109 -125 98 642 98 l671 0 -6 173 c-4 115 -13 205 -27 272 -71 336 -250 577
-523 705 -135 63 -224 81 -422 85 -93 2 -183 1 -200 -2z m268 -527 c119 -36
214 -157 242 -309 l7 -37 -352 0 c-330 0 -351 1 -346 18 3 9 10 37 16 62 33
127 119 227 229 266 48 17 147 17 204 0z"/>
        <path d="M3015 4083 c-309 -66 -562 -312 -644 -628 -98 -372 1 -777 243 -998
169 -154 365 -228 611 -228 75 -1 145 5 187 15 134 31 270 110 373 215 27 28
53 51 57 51 12 0 9 -97 -7 -184 -34 -194 -152 -313 -350 -357 -34 -7 -115 -13
-190 -12 -203 2 -396 49 -592 146 -46 22 -84 39 -86 36 -2 -2 -53 -107 -114
-234 l-111 -230 46 -24 c136 -70 369 -143 557 -175 160 -28 388 -39 551 -27
356 27 559 104 735 280 123 123 184 241 232 446 20 87 21 119 24 988 l4 897
-351 0 -350 0 0 -115 c0 -63 -2 -115 -3 -115 -2 0 -24 19 -48 41 -118 110
-258 187 -391 214 -97 19 -289 18 -383 -2z m573 -554 c74 -26 113 -52 166
-110 87 -96 117 -246 77 -376 -54 -177 -218 -283 -420 -270 -115 7 -188 36
-262 105 -82 76 -111 141 -117 258 -5 108 11 171 64 249 100 148 305 208 492
144z"/>
        <path d="M5945 4091 c-169 -28 -292 -96 -427 -235 l-78 -80 0 142 0 142 -350
0 -350 0 0 -1010 0 -1010 350 0 350 0 0 548 c0 325 4 573 10 612 29 180 147
281 315 268 73 -6 126 -29 171 -75 90 -90 94 -119 94 -790 l0 -563 350 0 351
0 -3 748 c-4 838 -1 794 -80 962 -32 67 -57 101 -117 160 -87 87 -165 132
-276 160 -89 23 -237 33 -310 21z"/>
        <path d="M6910 3050 l0 -1010 350 0 350 0 0 1010 0 1010 -350 0 -350 0 0
-1010z"/>
        <path d="M12545 3255 c-236 -267 -438 -496 -449 -509 -18 -24 -18 -24 14 -65
19 -23 37 -41 41 -41 9 0 1052 771 1082 799 17 17 12 24 -110 158 -70 78 -132
142 -138 142 -5 0 -203 -218 -440 -484z"/>
        <path d="M12520 2564 c-157 -84 -289 -155 -294 -157 -6 -2 -4 -26 5 -58 l15
-54 39 1 c193 7 625 40 625 48 0 9 -100 368 -104 373 0 0 -129 -68 -286 -153z"/>
        <path d="M11643 2675 c-302 -85 -337 -493 -55 -632 49 -24 69 -28 142 -28 102
0 174 29 240 95 66 66 95 138 95 240 0 73 -4 93 -28 142 -72 146 -243 226
-394 183z"/>
    </g>
</svg>
