<svg width="61" height="61" viewBox="0 0 61 61" fill="none" xmlns="http://www.w3.org/2000/svg">
    <path d="M27 10.4094C27 10.8844 26.6 11.2844 26.125 11.2844H23.3C17.9 11.2844 13.5 15.6844 13.5 21.0844V44.1594C13.5 44.6344 13.1 45.0344 12.625 45.0344H10.875C7.9 45.0344 5.5 42.6344 5.5 39.6594V10.4094C5.5 7.43442 7.9 5.03442 10.875 5.03442H21.625C24.6 5.03442 27 7.43442 27 10.4094Z"
          fill="currentColor"/>
    <path d="M55.5 10.4094V39.6594C55.5 42.6344 53.1 45.0344 50.125 45.0344H48.55C48.075 45.0344 47.675 44.6344 47.675 44.1594V21.0844C47.675 15.6844 43.275 11.2844 37.875 11.2844H34.875C34.4 11.2844 34 10.8844 34 10.4094C34 7.43442 36.4 5.03442 39.375 5.03442H50.125C53.1 5.03442 55.5 7.43442 55.5 10.4094Z"
          fill="currentColor"/>
    <path d="M37.875 15.0344H23.3C19.95 15.0344 17.25 17.7344 17.25 21.0844V48.9844C17.25 52.3344 19.95 55.0344 23.3 55.0344H27.375C28.075 55.0344 28.625 54.4844 28.625 53.7844V47.5344C28.625 46.5094 29.475 45.6594 30.5 45.6594C31.525 45.6594 32.375 46.5094 32.375 47.5344V53.7844C32.375 54.4844 32.925 55.0344 33.625 55.0344H37.9C41.225 55.0344 43.925 52.3344 43.925 49.0094V21.0844C43.925 17.7344 41.225 15.0344 37.875 15.0344ZM35.5 36.9094H25.5C24.475 36.9094 23.625 36.0594 23.625 35.0344C23.625 34.0094 24.475 33.1594 25.5 33.1594H35.5C36.525 33.1594 37.375 34.0094 37.375 35.0344C37.375 36.0594 36.525 36.9094 35.5 36.9094ZM35.5 29.4094H25.5C24.475 29.4094 23.625 28.5594 23.625 27.5344C23.625 26.5094 24.475 25.6594 25.5 25.6594H35.5C36.525 25.6594 37.375 26.5094 37.375 27.5344C37.375 28.5594 36.525 29.4094 35.5 29.4094Z"
          fill="currentColor"/>
</svg>
