<svg width="49" height="51" viewBox="0 0 49 51" fill="none" xmlns="http://www.w3.org/2000/svg">
    <path d="M45.75 20.5094H38.525C32.6 20.5094 27.775 15.6844 27.775 9.75942V2.53442C27.775 1.15942 26.65 0.0344238 25.275 0.0344238H14.675C6.975 0.0344238 0.75 5.03442 0.75 13.9594V36.1094C0.75 45.0344 6.975 50.0344 14.675 50.0344H34.325C42.025 50.0344 48.25 45.0344 48.25 36.1094V23.0094C48.25 21.6344 47.125 20.5094 45.75 20.5094ZM23.25 39.4094H13.25C12.225 39.4094 11.375 38.5594 11.375 37.5344C11.375 36.5094 12.225 35.6594 13.25 35.6594H23.25C24.275 35.6594 25.125 36.5094 25.125 37.5344C25.125 38.5594 24.275 39.4094 23.25 39.4094ZM28.25 29.4094H13.25C12.225 29.4094 11.375 28.5594 11.375 27.5344C11.375 26.5094 12.225 25.6594 13.25 25.6594H28.25C29.275 25.6594 30.125 26.5094 30.125 27.5344C30.125 28.5594 29.275 29.4094 28.25 29.4094Z"
          fill="currentColor"/>
</svg>
