<svg width="60" height="60" viewBox="0 0 60 60" fill="none" xmlns="http://www.w3.org/2000/svg">
    <path d="M45.8501 35.325L40.4001 30.95C39.6251 30.35 38.6501 30 37.6501 30H31.8751V22.5H43.0501C45.4751 22.5 47.4251 20.55 47.4251 18.125V9.375C47.4251 6.95 45.4751 5 43.0501 5H22.4001C21.4251 5 20.4501 5.35 19.6751 5.95L14.2001 10.325C12.0251 12.075 12.0251 15.425 14.2001 17.175L19.6751 21.55C20.4501 22.15 21.4251 22.5 22.4001 22.5H28.1251V30H17.0001C14.5751 30 12.6251 31.95 12.6251 34.375V43.125C12.6251 45.55 14.5751 47.5 17.0001 47.5H28.1251V53.125H22.5001C21.4751 53.125 20.6251 53.975 20.6251 55C20.6251 56.025 21.4751 56.875 22.5001 56.875H37.5001C38.5251 56.875 39.3751 56.025 39.3751 55C39.3751 53.975 38.5251 53.125 37.5001 53.125H31.8751V47.5H37.6501C38.6501 47.5 39.6251 47.15 40.4001 46.55L45.8501 42.175C48.0501 40.425 48.0501 37.075 45.8501 35.325Z"
          fill="currentColor"/>
</svg>
